<?xml version="1.0" encoding="UTF-8" standalone="no"?>
<!DOCTYPE svg PUBLIC "-//W3C//DTD SVG 1.1//EN" "http://www.w3.org/Graphics/SVG/1.1/DTD/svg11.dtd">
<svg xmlns="http://www.w3.org/2000/svg" version="1.1" viewBox="0.00 0.00 1642.00 1642.00" width="1642.00" height="1642.00">
<path fill="#0900ff" d="
  M 1064.16 484.89
  C 1064.43 485.43 1063.94 486.03 1063.36 485.89
  L 1057.62 484.52
  C 1057.41 484.47 1057.20 484.39 1057.00 484.29
  C 1055.45 483.47 1053.47 482.95 1051.06 482.73
  C 1050.13 482.64 1048.43 481.76 1045.94 480.09
  C 1044.13 478.88 1039.88 478.94 1038.17 478.91
  C 1031.16 478.81 1025.15 479.24 1021.19 484.91
  C 1020.86 485.39 1020.45 485.80 1019.99 486.14
  C 1017.62 487.87 1013.33 490.04 1012.89 493.21
  C 1012.19 498.21 1010.06 501.53 1004.39 500.43
  C 1002.79 500.12 1000.86 499.94 998.59 499.87
  C 997.84 499.85 997.21 499.28 997.12 498.54
  C 996.77 495.72 996.89 493.24 997.50 491.09
  C 997.59 490.76 997.78 490.47 998.04 490.26
  C 998.55 489.85 998.84 489.46 998.92 489.09
  C 999.00 488.74 998.90 488.37 998.67 488.10
  C 995.99 484.94 988.75 482.50 984.94 481.39
  C 982.03 480.55 980.13 479.49 977.55 478.05
  C 976.15 477.28 974.50 477.13 972.99 477.64
  L 970.15 478.61
  C 969.82 478.72 969.47 478.79 969.12 478.80
  L 957.64 479.13
  C 957.53 479.14 957.43 479.15 957.32 479.18
  C 954.74 479.93 952.74 480.81 951.31 481.82
  C 948.55 483.79 947.26 489.31 946.71 492.66
  C 946.66 492.93 946.45 493.13 946.18 493.15
  C 945.21 493.23 944.31 493.01 943.48 492.50
  C 942.11 491.67 937.92 488.82 930.89 483.94
  C 928.69 482.41 926.26 482.80 924.04 484.26
  C 922.93 484.99 920.50 486.45 916.75 488.65
  C 916.26 488.94 915.62 488.72 915.42 488.18
  C 913.88 484.11 916.53 476.66 918.22 471.98
  C 919.06 469.65 920.97 467.17 923.96 464.52
  C 926.75 462.03 931.05 461.22 934.71 459.47
  C 950.00 452.18 958.50 448.18 960.21 447.46
  C 963.61 446.04 966.89 445.18 971.03 445.04
  C 977.28 444.82 985.27 444.81 995.00 445.02
  C 1001.56 445.16 1006.37 441.56 1009.68 436.12
  C 1009.70 436.09 1009.72 436.05 1009.73 436.01
  L 1014.56 423.84
  C 1014.66 423.59 1014.80 423.36 1014.97 423.15
  L 1021.01 415.87
  C 1021.04 415.84 1021.06 415.82 1021.07 415.79
  C 1022.99 411.92 1024.56 407.33 1025.77 402.00
  C 1027.11 396.11 1023.39 391.13 1022.09 385.94
  C 1021.68 384.30 1021.83 382.95 1022.54 381.89
  C 1022.73 381.61 1022.98 381.36 1023.27 381.18
  C 1025.72 379.65 1028.71 378.90 1032.25 378.94
  C 1035.97 378.99 1047.97 378.99 1068.25 378.93
  C 1071.28 378.92 1078.60 378.46 1090.21 377.55
  C 1090.69 377.52 1091.16 377.43 1091.63 377.30
  C 1094.24 376.55 1096.83 376.13 1099.39 376.03
  C 1099.78 376.01 1099.96 376.50 1099.65 376.74
  C 1096.73 378.97 1097.02 380.86 1097.86 384.42
  C 1098.99 389.17 1099.12 394.12 1098.25 399.25
  C 1097.30 404.91 1096.61 412.51 1097.90 418.31
  C 1098.69 421.87 1101.17 425.83 1101.17 429.53
  C 1101.18 433.84 1099.50 437.49 1096.15 440.49
  C 1091.11 445.00 1086.67 448.46 1082.83 450.85
  C 1079.98 452.63 1074.80 452.99 1071.31 453.38
  C 1070.88 453.43 1070.47 453.57 1070.10 453.79
  L 1062.87 458.11
  C 1062.75 458.18 1062.64 458.27 1062.54 458.37
  L 1058.71 462.30
  C 1057.93 463.10 1057.41 464.12 1057.22 465.23
  L 1055.51 475.30
  C 1055.47 475.52 1055.49 475.75 1055.57 475.95
  C 1056.81 479.37 1060.89 482.09 1063.12 483.61
  C 1063.52 483.88 1063.87 484.30 1064.16 484.89
  Z"
/>
</svg>
