<?xml version="1.0" encoding="UTF-8" standalone="no"?>
<!DOCTYPE svg PUBLIC "-//W3C//DTD SVG 1.1//EN" "http://www.w3.org/Graphics/SVG/1.1/DTD/svg11.dtd">
<svg xmlns="http://www.w3.org/2000/svg" version="1.1" viewBox="0.00 0.00 1642.00 1642.00" width="1642.00" height="1642.00">
<path fill="#0900ff" d="
  M 1273.52 350.07
  C 1273.81 350.10 1273.99 350.40 1273.87 350.67
  C 1272.46 353.83 1271.80 357.41 1271.90 361.41
  C 1271.92 362.30 1271.45 363.13 1270.68 363.58
  L 1268.56 364.80
  C 1268.29 364.96 1268.12 365.25 1268.12 365.56
  L 1268.12 367.98
  C 1268.12 368.40 1268.01 368.82 1267.80 369.19
  C 1266.50 371.50 1265.86 374.21 1265.88 377.30
  C 1265.89 377.94 1265.13 378.30 1264.64 377.88
  C 1262.15 375.78 1258.93 374.53 1254.98 374.13
  C 1254.84 374.11 1254.69 374.14 1254.57 374.21
  L 1251.04 376.25
  C 1250.72 376.43 1250.37 376.55 1250.00 376.59
  C 1244.59 377.18 1241.09 377.76 1239.51 378.32
  C 1233.77 380.35 1228.17 382.31 1222.70 384.18
  C 1221.49 384.59 1220.53 385.16 1219.82 385.87
  C 1219.63 386.06 1219.48 386.29 1219.37 386.54
  C 1216.36 393.71 1214.18 402.48 1215.74 410.14
  C 1216.04 411.62 1214.92 413.00 1213.41 413.00
  C 1204.68 413.00 1196.31 412.92 1188.89 415.64
  C 1188.64 415.73 1188.36 415.64 1188.21 415.43
  C 1183.77 409.17 1184.69 400.06 1187.31 393.50
  C 1187.87 392.09 1189.17 389.69 1191.21 386.30
  C 1193.12 383.13 1194.34 379.81 1194.88 376.36
  C 1195.02 375.50 1194.74 374.63 1194.12 374.02
  L 1187.50 367.39
  C 1187.33 367.22 1187.21 367.01 1187.16 366.77
  C 1186.23 362.67 1185.78 359.48 1181.57 358.81
  C 1180.98 358.72 1180.49 358.29 1180.32 357.71
  L 1175.78 342.18
  C 1175.39 340.85 1175.87 339.42 1176.98 338.60
  C 1181.70 335.10 1186.98 333.48 1192.83 333.73
  C 1195.90 333.86 1198.99 333.78 1201.09 335.73
  C 1206.53 340.80 1211.55 345.31 1216.15 349.26
  C 1218.97 351.68 1225.36 351.14 1229.72 350.93
  C 1231.55 350.84 1234.82 350.30 1239.54 349.32
  C 1244.20 348.36 1249.14 348.05 1254.37 348.39
  C 1259.58 348.74 1265.97 349.30 1273.52 350.07
  Z"
/>
</svg>
