<?xml version="1.0" encoding="UTF-8" standalone="no"?>
<!DOCTYPE svg PUBLIC "-//W3C//DTD SVG 1.1//EN" "http://www.w3.org/Graphics/SVG/1.1/DTD/svg11.dtd">
<svg xmlns="http://www.w3.org/2000/svg" version="1.1" viewBox="0.00 0.00 1642.00 1642.00" width="1642.00" height="1642.00">
<path fill="#0900ff" d="
  M 277.19 1229.02
  L 280.71 1231.57
  C 281.34 1232.02 282.04 1232.35 282.79 1232.54
  C 283.02 1232.60 284.16 1232.72 286.23 1232.89
  C 288.75 1233.10 294.09 1233.16 302.25 1233.08
  C 310.74 1232.99 315.88 1230.11 316.04 1221.11
  C 316.10 1217.42 316.51 1212.82 320.14 1210.64
  C 321.95 1209.55 323.65 1208.25 325.22 1206.76
  C 325.44 1206.55 325.61 1206.30 325.74 1206.02
  C 329.01 1198.65 333.00 1187.97 342.76 1187.97
  C 352.22 1187.98 360.42 1187.51 367.35 1186.58
  C 368.25 1186.46 369.60 1186.02 371.41 1185.27
  C 371.78 1185.12 372.12 1184.92 372.43 1184.69
  L 375.44 1182.40
  C 376.53 1181.58 378.06 1181.67 379.04 1182.62
  C 384.46 1187.89 389.04 1192.81 397.04 1191.88
  C 404.08 1191.06 410.99 1191.00 417.05 1188.14
  C 417.59 1187.88 418.21 1188.30 418.18 1188.90
  C 418.09 1190.69 417.01 1192.95 416.06 1195.19
  C 414.60 1198.62 413.42 1203.64 412.59 1207.10
  C 412.21 1208.67 411.37 1210.89 410.07 1213.77
  C 407.82 1218.74 405.61 1223.65 403.42 1228.51
  C 403.00 1229.43 402.90 1230.47 403.11 1231.47
  C 403.52 1233.34 404.34 1235.58 405.55 1238.19
  C 406.99 1241.29 407.81 1245.15 407.91 1249.37
  C 408.04 1255.40 408.13 1260.14 408.18 1263.59
  C 408.27 1270.17 410.79 1274.81 416.31 1278.31
  C 416.56 1278.47 416.68 1278.77 416.61 1279.06
  C 416.43 1279.72 415.88 1280.95 414.95 1282.74
  C 413.63 1285.29 414.14 1287.89 410.99 1289.71
  C 408.91 1290.90 406.90 1291.61 404.96 1291.84
  C 395.64 1292.90 384.74 1293.76 372.27 1294.43
  C 368.60 1294.62 364.36 1295.89 359.56 1298.24
  C 359.18 1298.42 358.79 1298.56 358.39 1298.67
  L 353.44 1299.96
  C 353.37 1299.98 353.31 1300.01 353.24 1300.04
  C 351.17 1301.14 349.29 1302.84 347.62 1305.14
  C 347.33 1305.53 347.16 1306.00 347.11 1306.48
  C 346.98 1307.76 346.86 1309.17 346.73 1310.72
  C 346.43 1314.35 343.79 1317.83 341.03 1322.29
  C 340.80 1322.66 340.27 1324.19 339.44 1326.89
  C 339.33 1327.24 338.76 1328.12 337.73 1329.51
  C 337.50 1329.82 337.14 1330.00 336.76 1330.00
  L 328.10 1330.00
  C 326.90 1330.00 325.73 1330.34 324.72 1330.98
  C 320.57 1333.61 316.20 1335.82 311.62 1337.61
  C 305.90 1339.85 301.19 1338.70 295.61 1337.41
  C 292.69 1336.73 292.78 1334.88 293.41 1332.20
  C 294.14 1329.15 294.07 1326.28 293.22 1323.59
  C 292.02 1319.80 292.33 1318.11 291.86 1314.32
  C 291.72 1313.20 291.26 1312.14 290.53 1311.27
  C 289.47 1310.01 288.18 1308.67 286.67 1307.24
  C 285.34 1305.99 283.91 1304.48 282.37 1302.70
  C 275.60 1294.88 270.88 1290.40 262.87 1286.16
  C 261.84 1285.61 260.99 1284.74 260.32 1283.54
  C 260.15 1283.23 260.06 1282.88 260.05 1282.53
  C 259.95 1277.07 260.30 1272.71 256.88 1269.33
  C 256.34 1268.79 256.07 1268.03 256.16 1267.27
  C 256.75 1262.16 257.58 1257.14 258.65 1252.20
  C 259.70 1247.34 266.60 1241.29 270.27 1238.77
  C 274.27 1236.02 275.09 1233.73 276.31 1229.33
  C 276.41 1228.95 276.87 1228.79 277.19 1229.02
  Z"
/>
</svg>
