<?xml version="1.0" encoding="UTF-8" standalone="no"?>
<!DOCTYPE svg PUBLIC "-//W3C//DTD SVG 1.1//EN" "http://www.w3.org/Graphics/SVG/1.1/DTD/svg11.dtd">
<svg xmlns="http://www.w3.org/2000/svg" version="1.1" viewBox="0.00 0.00 1642.00 1642.00" width="1642.00" height="1642.00">
<path fill="#fec902" d="
  M 223.55 818.97
  L 220.07 819.01
  C 219.61 819.01 219.17 818.92 218.75 818.74
  L 211.86 815.79
  C 211.54 815.65 211.29 815.41 211.14 815.11
  C 210.63 814.06 209.83 813.51 208.74 813.48
  C 205.90 813.38 201.90 813.36 196.74 813.41
  C 195.55 813.42 194.41 812.97 193.55 812.16
  L 189.62 808.46
  C 189.55 808.39 189.48 808.34 189.40 808.29
  L 183.84 804.86
  C 182.59 804.09 181.93 802.64 182.18 801.19
  C 182.59 798.82 183.61 796.51 185.22 794.24
  C 186.65 792.23 189.24 788.72 192.97 783.73
  C 194.07 782.26 195.53 779.69 197.34 776.00
  C 197.49 775.69 197.60 775.37 197.67 775.03
  C 198.32 771.80 198.78 768.40 200.37 765.24
  C 203.60 758.79 206.33 753.95 211.86 750.26
  C 215.07 748.12 216.97 746.69 217.56 745.98
  C 220.74 742.22 222.85 738.20 223.89 733.93
  C 224.20 732.64 224.17 730.40 223.79 727.23
  C 223.76 726.91 223.68 726.60 223.56 726.29
  C 221.92 721.92 221.93 717.66 223.60 713.50
  C 223.73 713.15 223.63 712.77 223.34 712.54
  C 221.65 711.21 220.36 709.43 219.46 707.21
  C 218.85 705.72 218.92 703.58 219.66 700.79
  C 221.63 693.37 223.92 686.61 226.55 680.51
  C 226.84 679.84 227.26 679.25 227.79 678.76
  C 233.31 673.59 238.65 671.42 246.57 668.10
  C 249.92 666.70 251.72 664.58 251.97 661.73
  C 252.37 656.98 254.36 653.51 258.15 649.09
  C 259.86 647.09 261.27 644.86 262.40 642.41
  C 264.39 638.08 264.06 633.75 264.11 627.83
  C 264.14 624.61 267.60 621.75 270.17 619.30
  C 270.66 618.83 270.78 618.10 270.46 617.51
  C 267.96 612.89 262.92 609.23 257.44 610.17
  C 252.05 611.09 247.65 611.30 244.25 610.80
  C 240.78 610.29 238.74 610.04 238.14 610.03
  C 235.63 610.00 233.66 609.67 232.23 609.04
  C 229.34 607.77 226.22 605.43 226.02 601.99
  C 225.79 598.26 226.24 592.61 225.64 588.15
  C 225.27 585.34 224.64 582.51 224.64 579.27
  C 224.64 572.61 224.59 568.30 224.49 566.34
  C 224.49 566.30 224.49 566.26 224.48 566.23
  L 223.91 563.18
  C 223.84 562.81 223.73 562.46 223.58 562.13
  C 221.29 557.03 218.39 552.36 214.87 548.11
  C 212.30 545.00 211.91 541.45 213.70 537.45
  C 213.89 537.03 214.17 536.66 214.51 536.36
  C 219.14 532.35 222.93 528.86 225.42 523.74
  C 225.64 523.30 225.78 522.82 225.83 522.34
  C 226.42 517.28 226.91 514.35 227.31 513.55
  C 229.44 509.36 231.89 506.21 234.66 504.12
  C 237.73 501.80 240.80 499.38 243.85 496.86
  C 246.32 494.83 252.45 491.00 256.78 489.80
  C 258.04 489.45 260.72 488.45 264.83 486.80
  C 265.32 486.60 266.91 486.29 269.60 485.88
  C 270.07 485.81 270.55 485.81 271.01 485.88
  C 273.37 486.23 276.47 486.50 280.32 486.70
  C 284.86 486.93 288.13 487.78 294.33 489.06
  C 294.57 489.11 294.79 489.20 295.00 489.33
  L 300.21 492.51
  C 300.54 492.71 300.89 492.87 301.26 492.98
  C 305.02 494.10 308.52 494.70 311.75 494.79
  C 321.98 495.06 329.24 494.97 333.51 494.51
  C 342.01 493.60 349.21 494.30 355.10 496.63
  C 357.57 497.61 360.73 501.13 363.16 501.75
  C 368.81 503.18 372.81 499.41 378.51 495.49
  C 378.93 495.20 379.31 494.84 379.63 494.44
  C 380.94 492.77 382.39 490.26 383.98 486.92
  C 384.49 485.85 384.87 484.20 385.10 481.98
  C 385.56 477.66 388.96 474.00 393.18 472.63
  C 399.83 470.46 405.45 468.39 411.18 472.86
  C 412.11 473.58 414.84 475.86 419.39 479.70
  C 419.72 479.97 420.01 480.28 420.27 480.63
  C 422.29 483.36 423.72 485.04 424.57 485.69
  C 431.62 491.04 439.84 493.79 449.23 493.92
  C 455.97 494.01 460.50 494.06 462.83 494.05
  C 463.24 494.05 463.65 494.10 464.05 494.19
  C 470.08 495.55 474.60 496.68 476.38 503.37
  C 477.51 507.58 477.35 512.43 475.92 517.91
  C 475.82 518.28 475.78 518.66 475.81 519.04
  L 476.10 524.48
  C 476.11 524.68 476.16 524.89 476.25 525.07
  C 478.67 530.08 483.52 534.05 488.21 537.34
  C 490.55 538.98 493.33 540.40 496.56 541.59
  C 500.89 543.20 503.84 544.29 505.40 544.86
  C 506.50 545.27 508.71 544.94 510.03 544.18
  C 512.67 542.67 516.27 541.32 519.37 542.30
  C 519.73 542.41 520.07 542.59 520.37 542.82
  C 525.54 546.74 528.97 551.21 534.05 556.42
  C 539.45 561.95 540.79 571.23 541.52 580.01
  C 541.56 580.47 541.66 580.93 541.82 581.37
  C 543.44 585.87 545.75 589.79 548.76 593.13
  C 553.19 598.03 557.07 604.00 557.98 610.57
  C 558.14 611.77 558.06 613.88 557.75 616.90
  C 557.15 622.68 557.08 628.62 557.55 634.71
  C 557.84 638.60 558.02 641.47 558.07 643.34
  C 558.21 648.44 557.87 650.73 559.03 654.74
  C 560.43 659.58 562.95 664.04 566.58 668.13
  C 569.74 671.69 570.85 676.21 572.34 680.97
  C 573.30 684.03 573.87 686.35 574.05 687.93
  C 574.62 693.12 573.44 699.91 570.43 704.53
  C 569.03 706.67 567.75 709.39 566.91 711.70
  C 565.06 716.80 563.02 721.57 560.78 726.01
  C 554.44 738.55 558.34 752.13 557.96 765.55
  C 557.91 767.05 558.23 768.54 558.88 769.89
  C 560.96 774.22 563.28 778.39 565.84 782.38
  C 568.11 785.94 567.21 790.16 565.66 794.78
  C 563.56 801.08 558.69 805.52 555.66 812.75
  C 555.39 813.40 555.24 814.09 555.22 814.80
  C 555.13 817.69 555.53 823.56 554.20 827.98
  C 552.31 834.25 549.77 840.04 546.57 845.34
  C 546.35 845.71 546.18 846.96 546.07 849.10
  C 545.91 851.98 545.36 854.84 544.92 856.78
  C 544.59 858.22 543.58 859.41 542.21 859.98
  C 538.41 861.56 534.22 863.02 529.63 864.35
  C 527.56 864.96 526.00 866.32 524.96 868.44
  C 523.01 872.41 521.24 875.40 519.67 877.41
  C 514.38 884.14 508.64 889.99 502.44 894.95
  C 501.59 895.64 500.21 896.28 498.30 896.88
  C 498.15 896.92 498.00 896.95 497.85 896.96
  L 485.56 897.90
  C 484.97 897.95 484.38 897.90 483.81 897.75
  L 470.52 894.37
  C 470.42 894.34 470.32 894.31 470.23 894.27
  L 467.69 893.18
  C 467.42 893.07 467.12 893.04 466.83 893.09
  C 462.96 893.85 460.61 896.21 459.15 900.23
  C 458.06 903.24 456.02 906.19 453.05 909.07
  C 452.82 909.30 452.54 909.48 452.24 909.61
  C 451.84 909.78 450.59 909.93 448.50 910.07
  C 442.35 910.50 442.67 917.42 443.38 922.44
  C 443.81 925.46 443.84 927.68 443.45 929.10
  C 442.44 932.82 439.47 934.43 434.53 933.93
  C 434.50 933.93 433.33 933.70 431.02 933.23
  C 428.09 932.64 425.54 933.36 423.37 935.37
  C 420.32 938.18 417.71 941.15 415.52 944.27
  C 414.66 945.50 414.73 946.92 415.74 948.55
  C 417.49 951.37 420.56 954.35 422.54 957.56
  C 423.77 959.55 424.47 960.69 424.63 960.97
  C 424.80 961.28 424.94 961.62 425.03 961.97
  C 425.80 964.79 425.88 971.74 423.05 974.16
  C 419.27 977.40 412.89 976.66 408.85 974.55
  C 407.48 973.83 406.26 972.67 405.21 971.07
  C 403.25 968.10 402.24 966.58 402.19 966.49
  C 401.71 965.64 400.63 965.36 399.80 965.87
  C 393.66 969.61 387.03 965.10 382.76 960.77
  C 380.72 958.70 379.48 956.31 379.04 953.62
  C 378.58 950.78 380.51 945.11 381.72 942.01
  C 382.85 939.11 383.72 936.47 384.33 934.10
  C 384.57 933.13 384.45 932.11 383.99 931.23
  C 382.16 927.73 382.98 924.15 384.93 920.37
  C 387.44 915.50 388.92 910.66 389.37 905.85
  C 390.30 895.96 390.85 886.69 391.02 878.02
  C 391.09 874.24 390.86 870.68 390.32 867.33
  C 390.21 866.60 390.15 865.87 390.15 865.14
  C 390.15 861.33 389.99 858.89 389.68 857.83
  C 388.25 853.00 385.49 849.45 381.40 847.18
  C 378.97 845.84 375.18 845.65 372.82 843.50
  C 372.57 843.27 372.24 843.14 371.89 843.15
  C 368.80 843.22 367.39 845.15 366.62 848.08
  C 366.52 848.47 366.55 848.88 366.71 849.26
  C 368.36 852.99 369.90 855.71 367.99 859.31
  C 367.84 859.60 367.59 859.82 367.28 859.93
  C 366.19 860.32 364.93 860.46 363.51 860.35
  C 360.34 860.09 358.39 859.87 357.66 859.69
  C 354.13 858.81 351.86 857.46 347.81 855.49
  C 346.64 854.92 345.29 854.87 344.08 855.35
  C 341.95 856.20 340.24 857.32 338.97 858.73
  C 335.83 862.18 334.20 858.51 332.26 855.77
  C 331.76 855.06 330.82 854.81 330.03 855.18
  C 328.06 856.09 326.77 858.00 324.92 859.17
  C 321.39 861.41 319.10 862.70 318.06 863.05
  C 316.95 863.42 314.94 863.44 312.01 863.13
  C 308.61 862.77 305.49 865.56 302.53 866.87
  C 302.09 867.06 301.61 867.17 301.13 867.20
  C 297.57 867.36 294.22 867.77 291.08 868.43
  C 287.00 869.29 283.98 868.87 280.98 866.62
  C 279.75 865.70 278.05 865.75 276.89 866.75
  C 275.05 868.34 272.66 869.07 269.72 868.93
  C 269.63 868.92 269.55 868.90 269.46 868.87
  L 263.01 866.19
  C 262.79 866.10 262.56 866.07 262.32 866.09
  C 259.70 866.31 257.85 867.38 256.76 869.29
  C 256.15 870.36 254.81 870.86 253.50 870.51
  C 251.42 869.96 249.74 869.53 248.46 869.22
  C 248.14 869.14 247.80 869.22 247.53 869.42
  C 245.60 870.91 243.17 871.42 240.23 870.94
  C 228.83 869.09 224.08 869.00 216.20 864.56
  C 215.65 864.25 213.06 862.23 208.44 858.52
  C 206.41 856.89 204.93 855.23 204.00 853.52
  C 201.40 848.79 199.11 844.87 202.85 839.72
  C 203.76 838.47 203.99 837.01 203.56 835.32
  C 203.39 834.63 203.53 833.53 203.99 832.02
  C 204.24 831.19 205.04 830.49 206.39 829.92
  C 206.99 829.66 208.86 828.50 211.99 826.45
  C 212.25 826.28 212.52 826.13 212.81 826.00
  C 216.38 824.48 219.22 822.93 221.34 821.35
  C 221.53 821.21 221.73 821.10 221.95 821.02
  C 222.71 820.76 223.34 820.26 223.85 819.53
  C 224.02 819.30 223.84 818.97 223.55 818.97
  Z
  M 399.90 472.52
  L 399.23 472.60
  C 393.97 473.85 390.37 474.74 387.72 479.24
  L 387.47 479.79
  C 387.07 480.58 386.83 481.39 386.74 482.24
  C 386.55 482.69 386.46 483.19 386.45 483.75
  C 386.00 486.99 384.79 489.97 382.81 492.69
  C 382.72 493.12 382.52 493.54 382.20 493.95
  C 380.20 496.63 377.67 498.13 373.60 500.84
  C 370.69 502.78 367.50 503.77 364.03 503.82
  C 363.75 503.61 363.42 503.50 363.04 503.49
  L 361.51 503.03
  C 361.02 502.88 360.57 502.65 360.17 502.33
  C 357.18 499.99 355.17 498.31 352.04 497.60
  C 351.71 497.42 351.35 497.31 350.98 497.26
  C 347.11 495.47 341.27 495.91 336.99 495.62
  C 335.74 495.54 334.01 495.85 331.80 496.55
  L 323.59 496.74
  C 317.34 497.21 311.16 496.89 305.05 495.76
  L 304.44 495.60
  C 303.95 495.43 303.46 495.41 302.96 495.56
  C 302.67 495.33 302.34 495.24 301.96 495.31
  C 299.47 494.30 297.18 492.83 295.09 490.91
  C 294.81 490.65 294.46 490.48 294.08 490.41
  C 291.06 489.90 288.48 489.41 286.35 488.95
  C 281.21 487.83 276.77 488.07 270.69 487.85
  C 270.52 487.84 270.36 487.79 270.23 487.69
  C 270.19 487.66 270.16 487.65 270.15 487.64
  C 269.82 487.45 269.42 487.41 269.06 487.52
  C 268.21 487.79 267.19 488.04 265.99 488.27
  C 263.18 488.80 260.94 490.23 258.40 490.89
  C 257.11 491.22 255.65 491.83 254.00 492.72
  C 247.33 496.33 241.74 501.06 235.66 505.46
  L 234.02 507.04
  C 231.68 509.36 229.93 511.90 228.78 514.65
  C 228.75 515.08 228.65 515.46 228.50 515.79
  L 227.72 521.79
  C 227.52 522.04 227.44 522.38 227.49 522.81
  C 226.18 527.86 223.15 530.15 219.95 533.86
  L 218.04 535.93
  C 216.77 536.51 215.66 537.59 214.71 539.18
  L 214.45 539.78
  C 213.02 541.86 214.75 545.10 216.03 546.84
  C 216.18 547.31 216.44 547.76 216.81 548.21
  C 217.01 548.90 217.61 549.71 218.60 550.64
  C 220.14 552.07 222.01 554.89 224.21 559.10
  L 224.82 560.21
  L 225.47 562.21
  L 225.75 563.21
  C 226.33 569.68 225.87 576.22 226.29 582.73
  C 226.38 584.04 226.76 585.56 227.45 587.28
  L 227.59 587.78
  C 228.20 592.42 226.65 596.26 227.29 601.20
  L 227.75 602.24
  C 228.68 605.66 232.81 607.59 236.01 608.22
  C 237.18 608.75 238.54 608.92 240.10 608.73
  L 256.83 608.76
  L 262.03 608.81
  C 266.88 610.09 270.17 612.68 271.90 616.57
  C 272.39 617.67 272.40 618.78 271.92 619.91
  C 271.22 621.54 269.11 622.44 267.87 623.99
  C 267.59 624.21 267.32 624.55 267.06 625.01
  C 266.05 626.78 265.61 628.85 265.74 631.22
  C 265.37 632.73 265.32 634.27 265.60 635.83
  C 265.36 635.80 265.24 636.01 265.24 636.47
  C 265.25 640.38 264.12 643.88 261.83 646.95
  C 261.65 647.33 261.35 647.70 260.94 648.05
  L 258.98 650.81
  L 257.20 652.98
  C 256.63 653.56 256.19 654.25 255.87 655.04
  L 255.42 655.79
  C 254.37 658.06 253.86 660.52 253.89 663.15
  C 253.90 663.80 253.71 664.44 253.35 664.98
  C 250.97 668.62 247.83 669.72 243.18 671.10
  C 243.15 671.11 243.11 671.12 243.08 671.13
  L 235.44 674.53
  C 235.18 674.65 234.95 674.81 234.75 675.00
  C 232.03 677.68 227.61 679.86 226.79 684.76
  C 226.47 685.09 226.31 685.50 226.30 685.98
  L 225.76 687.19
  C 225.65 687.38 225.59 687.59 225.56 687.80
  C 225.17 688.37 224.94 689.03 224.85 689.79
  C 224.63 690.06 224.50 690.39 224.45 690.77
  L 223.58 693.21
  L 223.51 693.78
  C 223.07 694.72 222.84 695.72 222.82 696.79
  C 222.52 697.10 222.33 697.49 222.24 697.97
  C 221.81 698.66 221.56 699.41 221.48 700.21
  C 221.35 700.54 221.33 700.71 221.42 700.72
  C 220.16 704.55 221.05 707.85 224.10 710.64
  C 225.25 711.70 225.47 713.41 224.75 715.78
  L 224.51 716.80
  C 223.76 718.83 223.77 720.97 224.52 723.22
  L 224.69 723.82
  L 225.86 733.78
  C 225.61 734.03 225.50 734.36 225.54 734.78
  L 224.89 736.80
  C 224.68 737.11 224.54 737.44 224.47 737.79
  C 224.13 738.12 223.92 738.54 223.85 739.03
  C 223.64 739.23 223.51 739.48 223.46 739.79
  C 223.15 740.19 222.91 740.65 222.74 741.18
  C 222.61 741.37 222.52 741.57 222.47 741.79
  L 221.75 743.19
  C 221.62 743.38 221.53 743.58 221.48 743.79
  L 220.88 745.03
  C 220.61 745.27 220.40 745.57 220.24 745.92
  C 217.56 749.25 213.35 751.44 209.80 753.80
  C 207.87 755.09 205.91 757.85 203.93 762.08
  C 203.69 762.11 203.53 762.34 203.46 762.79
  C 203.11 763.10 202.90 763.51 202.84 764.03
  C 202.54 764.21 202.36 764.52 202.29 764.95
  C 202.05 765.30 201.90 765.65 201.85 766.02
  C 201.67 766.23 201.53 766.48 201.42 766.78
  C 200.42 768.97 199.85 771.31 199.72 773.79
  C 199.53 774.04 199.44 774.36 199.45 774.77
  L 198.89 776.79
  C 198.68 777.10 198.53 777.44 198.46 777.79
  C 198.12 778.18 197.88 778.64 197.75 779.18
  C 197.62 779.37 197.53 779.58 197.48 779.80
  L 196.77 781.21
  C 196.64 781.38 196.55 781.58 196.49 781.79
  C 196.20 782.16 195.98 782.57 195.85 783.02
  C 195.57 783.28 195.37 783.59 195.26 783.96
  L 191.89 787.98
  L 191.45 788.77
  L 189.89 791.04
  C 189.69 791.23 189.54 791.47 189.43 791.77
  L 186.89 795.02
  C 186.51 795.35 186.20 795.74 185.96 796.21
  L 184.75 798.20
  C 184.61 798.39 184.53 798.58 184.51 798.77
  C 183.15 801.29 183.75 802.57 186.14 804.05
  C 188.20 805.32 190.13 806.70 191.94 808.17
  L 192.95 809.23
  C 193.60 810.29 194.45 811.13 195.51 811.74
  C 195.82 811.92 196.17 812.01 196.52 812.01
  C 200.79 812.06 205.08 812.09 209.39 812.09
  C 210.30 812.09 211.02 812.43 211.54 813.12
  C 212.35 814.20 213.51 814.92 215.00 815.29
  C 215.28 815.50 215.63 815.66 216.04 815.77
  C 218.11 816.68 220.22 817.20 222.37 817.33
  L 224.94 818.03
  C 225.51 818.74 225.85 819.41 225.96 820.02
  L 224.02 821.85
  C 222.17 822.14 221.57 823.74 220.26 824.38
  C 214.65 827.11 210.14 829.58 206.74 831.78
  C 204.69 833.11 204.35 835.00 205.72 837.47
  C 205.87 837.74 205.87 838.07 205.73 838.34
  C 205.00 839.74 202.56 842.31 202.58 844.70
  C 202.37 845.58 202.42 846.30 202.74 846.87
  C 203.29 850.51 207.35 855.04 209.80 857.19
  C 214.24 861.06 218.44 864.14 223.97 866.31
  C 224.28 866.49 224.62 866.62 225.00 866.69
  L 227.97 867.38
  L 228.97 867.73
  C 231.80 867.96 233.95 868.16 237.30 868.68
  C 239.84 869.07 242.40 869.12 244.98 868.81
  C 245.43 868.71 245.84 868.55 246.21 868.33
  L 247.98 867.70
  L 250.04 867.78
  L 252.00 868.28
  C 252.23 868.51 252.57 868.65 253.02 868.70
  C 253.99 869.10 254.91 868.89 255.80 868.06
  C 256.56 867.35 257.33 866.68 258.10 866.07
  L 259.12 865.27
  L 261.85 864.34
  C 262.19 864.22 262.56 864.24 262.89 864.40
  L 266.95 866.35
  L 267.97 866.69
  C 270.54 867.38 272.90 867.27 275.03 866.34
  L 276.12 865.22
  C 276.81 865.13 277.43 864.95 277.99 864.68
  L 280.07 864.74
  L 281.98 865.25
  C 282.16 865.48 282.46 865.68 282.88 865.85
  C 284.79 866.94 286.67 867.36 288.52 867.10
  C 294.05 866.32 297.58 865.93 299.11 865.92
  C 300.70 865.91 301.80 865.72 302.41 865.36
  C 306.13 863.18 307.24 861.68 312.01 862.08
  C 314.50 862.29 316.81 861.96 318.92 861.09
  L 320.05 860.21
  L 323.47 858.27
  L 325.15 857.03
  C 326.42 855.02 328.21 853.76 330.54 853.25
  C 330.85 853.18 331.18 853.21 331.47 853.33
  L 333.01 853.97
  C 333.50 854.82 334.16 855.53 335.00 856.10
  C 335.25 856.97 335.75 857.56 336.48 857.88
  C 336.79 858.02 337.15 858.02 337.45 857.87
  C 338.63 857.32 339.59 856.58 340.33 855.65
  C 340.54 855.39 340.78 855.17 341.06 854.99
  L 343.01 853.73
  C 343.39 853.68 343.72 853.52 344.00 853.25
  C 345.65 852.89 346.98 852.98 347.98 853.51
  C 351.53 855.42 355.16 857.05 358.85 858.41
  L 360.01 858.74
  C 362.02 859.12 364.01 859.16 365.99 858.85
  C 366.26 858.86 366.48 858.79 366.66 858.64
  C 366.83 858.49 366.93 858.27 366.94 857.97
  C 367.25 856.10 367.17 854.72 366.69 853.81
  C 365.52 851.60 364.98 849.43 365.07 847.28
  C 365.38 846.79 365.59 846.29 365.68 845.80
  C 366.70 842.90 369.81 840.49 372.91 841.35
  L 375.01 842.79
  C 376.16 843.60 377.49 844.10 379.02 844.30
  C 379.25 844.50 379.58 844.64 380.03 844.71
  C 383.50 845.91 386.31 848.11 388.46 851.32
  L 389.82 853.21
  L 391.51 858.28
  C 391.48 858.84 391.56 859.33 391.77 859.76
  L 392.32 867.91
  L 392.68 873.76
  L 392.72 879.23
  C 392.60 879.76 392.60 880.28 392.72 880.79
  C 392.63 881.00 392.61 881.23 392.64 881.47
  L 392.49 884.77
  L 391.72 897.24
  L 391.53 901.72
  L 390.78 909.28
  C 390.66 909.33 390.59 909.49 390.56 909.75
  C 389.83 913.58 388.57 917.23 386.78 920.72
  L 386.31 921.96
  L 385.74 923.19
  L 385.46 923.78
  L 384.60 926.21
  C 384.63 926.62 384.56 926.84 384.37 926.86
  C 384.70 928.29 385.17 929.74 385.78 931.23
  C 386.19 932.22 386.12 933.54 385.59 935.21
  L 385.51 935.76
  L 383.86 940.78
  L 383.46 941.78
  L 382.72 944.15
  C 382.61 944.34 382.55 944.56 382.55 944.79
  C 380.16 950.20 380.10 956.68 384.40 960.34
  C 386.41 962.05 389.26 963.77 392.95 965.50
  L 394.05 965.71
  C 396.45 966.34 399.03 964.52 401.18 963.64
  C 401.45 963.73 401.73 963.77 402.02 963.74
  C 404.40 965.44 405.51 968.06 407.01 970.47
  C 407.79 971.72 409.46 972.98 412.02 974.25
  L 413.02 974.79
  C 417.19 975.73 420.62 974.41 423.33 970.84
  C 423.38 970.62 423.46 970.44 423.56 970.29
  C 424.80 966.06 424.21 962.60 421.80 959.93
  L 421.24 959.11
  L 414.92 950.55
  C 414.74 950.30 414.60 950.04 414.49 949.75
  L 413.39 946.75
  L 413.60 944.14
  L 414.17 943.03
  L 414.96 941.78
  L 419.07 937.27
  L 420.08 936.22
  L 423.06 933.55
  C 423.27 933.36 423.50 933.20 423.74 933.07
  C 425.05 932.33 426.07 931.96 426.79 931.97
  C 431.62 932.04 435.53 932.05 438.53 932.01
  C 439.50 931.99 440.39 931.47 440.87 930.64
  C 441.92 928.85 442.19 926.80 441.70 924.51
  C 440.97 921.12 440.79 917.69 441.18 914.21
  C 441.47 913.80 441.67 913.35 441.80 912.86
  C 442.93 911.16 444.32 909.79 445.98 908.75
  C 446.50 908.73 446.91 908.56 447.20 908.23
  C 449.61 908.29 451.61 907.85 453.19 906.92
  L 453.98 905.80
  C 455.98 903.52 457.39 901.01 458.20 898.26
  L 458.57 897.18
  C 459.20 895.13 460.71 893.68 463.12 892.85
  C 463.47 892.72 463.79 892.51 464.08 892.22
  L 466.97 891.76
  L 467.97 891.89
  L 471.99 893.32
  C 472.50 893.38 472.77 893.50 472.79 893.69
  C 475.80 893.86 478.69 894.50 481.46 895.59
  C 481.69 895.68 481.92 895.75 482.17 895.78
  C 484.86 896.18 487.54 896.06 490.21 895.41
  C 490.46 895.34 490.72 895.30 490.99 895.27
  C 491.76 895.19 494.29 895.07 498.58 894.90
  C 499.36 894.87 500.25 894.43 501.24 893.58
  L 503.13 892.21
  L 511.00 884.97
  C 511.42 884.73 511.76 884.36 512.01 883.87
  C 516.83 879.04 520.63 873.55 523.41 867.40
  C 523.91 866.29 525.10 865.07 526.99 863.73
  C 527.39 863.65 527.73 863.47 528.01 863.19
  L 540.96 858.77
  C 541.33 858.79 541.70 858.61 542.07 858.23
  C 544.64 856.25 544.11 850.40 544.18 846.20
  C 544.54 845.77 544.70 845.29 544.66 844.75
  C 547.59 840.22 550.02 835.45 551.95 830.44
  C 552.10 830.04 552.18 829.63 552.18 829.21
  C 552.50 828.84 552.69 828.37 552.75 827.80
  L 553.28 825.73
  C 553.63 825.36 553.72 824.86 553.55 824.24
  C 554.53 821.31 554.02 817.11 553.97 813.99
  C 553.95 812.60 554.72 810.56 556.29 807.85
  L 556.53 807.21
  L 557.18 806.04
  C 557.51 805.69 557.79 805.28 558.01 804.80
  L 559.08 803.20
  C 559.48 802.76 559.76 802.28 559.92 801.76
  C 562.53 798.32 564.32 794.61 565.30 790.64
  C 565.60 789.15 565.60 787.67 565.30 786.22
  C 565.25 785.40 564.98 784.60 564.49 783.81
  C 564.34 783.56 564.28 783.33 564.29 783.12
  L 560.51 776.81
  L 560.21 776.19
  L 557.97 772.19
  C 557.82 771.71 557.57 771.29 557.22 770.94
  L 556.50 768.68
  C 556.63 768.07 556.55 767.66 556.25 767.45
  L 556.30 763.79
  C 556.39 763.62 556.45 763.43 556.49 763.20
  C 556.96 761.64 556.96 760.00 556.51 758.29
  C 556.58 757.77 556.53 757.40 556.35 757.18
  C 555.99 751.21 554.79 746.18 555.30 739.63
  C 555.51 739.24 555.56 738.76 555.45 738.21
  L 556.19 732.21
  C 556.45 731.84 556.51 731.49 556.38 731.17
  C 560.49 723.64 563.94 715.84 566.74 707.76
  C 567.36 705.97 568.57 703.96 570.38 701.72
  C 570.54 701.53 570.65 701.30 570.70 701.06
  L 572.31 693.77
  L 572.33 687.35
  C 572.27 686.55 572.08 685.77 571.75 685.02
  L 571.57 684.09
  L 569.53 678.71
  C 569.52 678.46 569.44 678.23 569.29 678.02
  C 568.93 674.36 567.54 671.34 565.11 668.97
  C 564.84 668.72 564.64 668.44 564.49 668.13
  C 560.04 663.44 558.63 658.92 556.70 651.97
  C 556.83 651.44 556.87 650.86 556.81 650.23
  C 557.38 645.52 557.28 641.44 556.52 637.99
  C 555.40 632.93 554.99 628.54 555.28 624.83
  C 555.45 624.56 555.55 624.21 555.56 623.78
  L 556.35 615.57
  C 556.62 615.36 556.68 614.93 556.53 614.26
  C 556.91 613.12 556.91 611.96 556.52 610.79
  L 556.31 610.03
  C 554.76 604.02 551.85 598.92 547.56 594.72
  L 547.24 594.16
  L 542.73 587.95
  L 542.29 586.88
  C 540.80 583.93 539.91 580.81 539.63 577.54
  C 539.64 577.08 539.50 576.72 539.22 576.46
  C 539.23 576.34 539.26 576.23 539.31 576.14
  C 539.26 575.79 539.29 575.52 539.38 575.35
  C 538.83 570.72 537.83 566.56 536.38 562.87
  C 535.85 561.54 534.90 560.17 533.52 558.76
  C 533.39 558.54 533.23 558.37 533.04 558.24
  C 532.89 557.87 532.63 557.50 532.25 557.13
  C 531.19 555.71 529.88 554.47 528.31 553.40
  C 528.02 553.20 527.76 552.96 527.55 552.69
  C 524.72 549.01 521.93 544.78 518.03 543.80
  C 517.56 543.42 517.28 543.39 517.19 543.70
  C 514.99 543.83 512.53 544.62 509.81 546.07
  C 508.84 546.58 507.52 546.85 505.85 546.88
  C 505.53 546.89 505.21 546.82 504.91 546.69
  L 489.02 539.85
  C 488.75 539.56 488.42 539.36 488.04 539.23
  L 485.96 537.97
  C 485.73 537.64 485.42 537.39 485.05 537.24
  L 481.00 533.90
  C 480.84 533.57 480.58 533.33 480.22 533.17
  C 479.93 532.56 479.52 532.19 478.98 532.05
  C 478.85 531.66 478.61 531.35 478.26 531.12
  L 475.52 527.73
  C 475.47 527.52 475.36 527.32 475.18 527.14
  C 474.01 524.07 473.72 520.77 474.29 517.22
  C 474.54 516.85 474.62 516.52 474.54 516.21
  L 475.29 509.79
  C 475.40 509.64 475.45 509.44 475.46 509.20
  C 476.35 506.42 473.89 502.05 472.21 499.56
  C 471.36 498.30 469.98 497.34 468.07 496.69
  L 467.10 496.44
  L 446.05 495.78
  C 446.02 495.57 445.69 495.46 445.08 495.43
  L 438.97 494.33
  L 438.09 494.21
  C 437.76 494.02 437.41 493.90 437.03 493.85
  C 436.73 493.62 436.39 493.51 436.02 493.50
  C 430.57 491.75 424.03 488.70 420.56 483.67
  L 420.23 483.18
  C 419.31 481.87 418.64 481.06 418.23 480.75
  C 416.88 479.76 414.30 477.59 410.49 474.24
  C 407.62 471.72 404.09 471.15 399.90 472.52
  Z"
/>
<g stroke-width="2.00" fill="none" stroke-linecap="butt">
<path stroke="#7f6501" vector-effect="non-scaling-stroke" d="
  M 399.23 472.60
  C 393.97 473.85 390.37 474.74 387.72 479.24"
/>
<path stroke="#7f6501" vector-effect="non-scaling-stroke" d="
  M 387.47 479.79
  C 387.07 480.58 386.83 481.39 386.74 482.24"
/>
<path stroke="#7f6501" vector-effect="non-scaling-stroke" d="
  M 386.45 483.75
  C 386.00 486.99 384.79 489.97 382.81 492.69"
/>
<path stroke="#7f6501" vector-effect="non-scaling-stroke" d="
  M 382.20 493.95
  C 380.20 496.63 377.67 498.13 373.60 500.84
  C 370.69 502.78 367.50 503.77 364.03 503.82"
/>
<path stroke="#7f6501" vector-effect="non-scaling-stroke" d="
  M 363.04 503.49
  L 361.51 503.03
  C 361.02 502.88 360.57 502.65 360.17 502.33
  C 357.18 499.99 355.17 498.31 352.04 497.60"
/>
<path stroke="#7f6501" vector-effect="non-scaling-stroke" d="
  M 350.98 497.26
  C 347.11 495.47 341.27 495.91 336.99 495.62
  C 335.74 495.54 334.01 495.85 331.80 496.55"
/>
<path stroke="#7f6501" vector-effect="non-scaling-stroke" d="
  M 323.59 496.74
  C 317.34 497.21 311.16 496.89 305.05 495.76"
/>
<path stroke="#7f6501" vector-effect="non-scaling-stroke" d="
  M 304.44 495.60
  C 303.95 495.43 303.46 495.41 302.96 495.56"
/>
<path stroke="#7f6501" vector-effect="non-scaling-stroke" d="
  M 301.96 495.31
  C 299.47 494.30 297.18 492.83 295.09 490.91
  C 294.81 490.65 294.46 490.48 294.08 490.41
  C 291.06 489.90 288.48 489.41 286.35 488.95
  C 281.21 487.83 276.77 488.07 270.69 487.85
  C 270.52 487.84 270.36 487.79 270.23 487.69
  C 270.19 487.66 270.16 487.65 270.15 487.64
  C 269.82 487.45 269.42 487.41 269.06 487.52
  C 268.21 487.79 267.19 488.04 265.99 488.27
  C 263.18 488.80 260.94 490.23 258.40 490.89
  C 257.11 491.22 255.65 491.83 254.00 492.72
  C 247.33 496.33 241.74 501.06 235.66 505.46"
/>
<path stroke="#7f6501" vector-effect="non-scaling-stroke" d="
  M 234.02 507.04
  C 231.68 509.36 229.93 511.90 228.78 514.65"
/>
<path stroke="#7f6501" vector-effect="non-scaling-stroke" d="
  M 228.50 515.79
  L 227.72 521.79"
/>
<path stroke="#7f6501" vector-effect="non-scaling-stroke" d="
  M 227.49 522.81
  C 226.18 527.86 223.15 530.15 219.95 533.86"
/>
<path stroke="#7f6501" vector-effect="non-scaling-stroke" d="
  M 218.04 535.93
  C 216.77 536.51 215.66 537.59 214.71 539.18"
/>
<path stroke="#7f6501" vector-effect="non-scaling-stroke" d="
  M 214.45 539.78
  C 213.02 541.86 214.75 545.10 216.03 546.84"
/>
<path stroke="#7f6501" vector-effect="non-scaling-stroke" d="
  M 216.81 548.21
  C 217.01 548.90 217.61 549.71 218.60 550.64
  C 220.14 552.07 222.01 554.89 224.21 559.10"
/>
<path stroke="#7f6501" vector-effect="non-scaling-stroke" d="
  M 224.82 560.21
  L 225.47 562.21"
/>
<path stroke="#7f6501" vector-effect="non-scaling-stroke" d="
  M 225.75 563.21
  C 226.33 569.68 225.87 576.22 226.29 582.73
  C 226.38 584.04 226.76 585.56 227.45 587.28"
/>
<path stroke="#7f6501" vector-effect="non-scaling-stroke" d="
  M 227.59 587.78
  C 228.20 592.42 226.65 596.26 227.29 601.20"
/>
<path stroke="#7f6501" vector-effect="non-scaling-stroke" d="
  M 227.75 602.24
  C 228.68 605.66 232.81 607.59 236.01 608.22"
/>
<path stroke="#7f6501" vector-effect="non-scaling-stroke" d="
  M 240.10 608.73
  L 256.83 608.76"
/>
<path stroke="#7f6501" vector-effect="non-scaling-stroke" d="
  M 262.03 608.81
  C 266.88 610.09 270.17 612.68 271.90 616.57
  C 272.39 617.67 272.40 618.78 271.92 619.91
  C 271.22 621.54 269.11 622.44 267.87 623.99"
/>
<path stroke="#7f6501" vector-effect="non-scaling-stroke" d="
  M 267.06 625.01
  C 266.05 626.78 265.61 628.85 265.74 631.22"
/>
<path stroke="#7f6501" vector-effect="non-scaling-stroke" d="
  M 265.60 635.83
  C 265.36 635.80 265.24 636.01 265.24 636.47
  C 265.25 640.38 264.12 643.88 261.83 646.95"
/>
<path stroke="#7f6501" vector-effect="non-scaling-stroke" d="
  M 260.94 648.05
  L 258.98 650.81"
/>
<path stroke="#7f6501" vector-effect="non-scaling-stroke" d="
  M 257.20 652.98
  C 256.63 653.56 256.19 654.25 255.87 655.04"
/>
<path stroke="#7f6501" vector-effect="non-scaling-stroke" d="
  M 255.42 655.79
  C 254.37 658.06 253.86 660.52 253.89 663.15
  C 253.90 663.80 253.71 664.44 253.35 664.98
  C 250.97 668.62 247.83 669.72 243.18 671.10
  C 243.15 671.11 243.11 671.12 243.08 671.13
  L 235.44 674.53
  C 235.18 674.65 234.95 674.81 234.75 675.00
  C 232.03 677.68 227.61 679.86 226.79 684.76"
/>
<path stroke="#7f6501" vector-effect="non-scaling-stroke" d="
  M 226.30 685.98
  L 225.76 687.19"
/>
<path stroke="#7f6501" vector-effect="non-scaling-stroke" d="
  M 225.56 687.80
  C 225.17 688.37 224.94 689.03 224.85 689.79"
/>
<path stroke="#7f6501" vector-effect="non-scaling-stroke" d="
  M 224.45 690.77
  L 223.58 693.21"
/>
<path stroke="#7f6501" vector-effect="non-scaling-stroke" d="
  M 223.51 693.78
  C 223.07 694.72 222.84 695.72 222.82 696.79"
/>
<path stroke="#7f6501" vector-effect="non-scaling-stroke" d="
  M 222.24 697.97
  C 221.81 698.66 221.56 699.41 221.48 700.21"
/>
<path stroke="#7f6501" vector-effect="non-scaling-stroke" d="
  M 221.42 700.72
  C 220.16 704.55 221.05 707.85 224.10 710.64
  C 225.25 711.70 225.47 713.41 224.75 715.78"
/>
<path stroke="#7f6501" vector-effect="non-scaling-stroke" d="
  M 224.51 716.80
  C 223.76 718.83 223.77 720.97 224.52 723.22"
/>
<path stroke="#7f6501" vector-effect="non-scaling-stroke" d="
  M 224.69 723.82
  L 225.86 733.78"
/>
<path stroke="#7f6501" vector-effect="non-scaling-stroke" d="
  M 225.54 734.78
  L 224.89 736.80"
/>
<path stroke="#7f6501" vector-effect="non-scaling-stroke" d="
  M 224.47 737.79
  C 224.13 738.12 223.92 738.54 223.85 739.03"
/>
<path stroke="#7f6501" vector-effect="non-scaling-stroke" d="
  M 223.46 739.79
  C 223.15 740.19 222.91 740.65 222.74 741.18"
/>
<path stroke="#7f6501" vector-effect="non-scaling-stroke" d="
  M 222.47 741.79
  L 221.75 743.19"
/>
<path stroke="#7f6501" vector-effect="non-scaling-stroke" d="
  M 221.48 743.79
  L 220.88 745.03"
/>
<path stroke="#7f6501" vector-effect="non-scaling-stroke" d="
  M 220.24 745.92
  C 217.56 749.25 213.35 751.44 209.80 753.80
  C 207.87 755.09 205.91 757.85 203.93 762.08"
/>
<path stroke="#7f6501" vector-effect="non-scaling-stroke" d="
  M 203.46 762.79
  C 203.11 763.10 202.90 763.51 202.84 764.03"
/>
<path stroke="#7f6501" vector-effect="non-scaling-stroke" d="
  M 202.29 764.95
  C 202.05 765.30 201.90 765.65 201.85 766.02"
/>
<path stroke="#7f6501" vector-effect="non-scaling-stroke" d="
  M 201.42 766.78
  C 200.42 768.97 199.85 771.31 199.72 773.79"
/>
<path stroke="#7f6501" vector-effect="non-scaling-stroke" d="
  M 199.45 774.77
  L 198.89 776.79"
/>
<path stroke="#7f6501" vector-effect="non-scaling-stroke" d="
  M 198.46 777.79
  C 198.12 778.18 197.88 778.64 197.75 779.18"
/>
<path stroke="#7f6501" vector-effect="non-scaling-stroke" d="
  M 197.48 779.80
  L 196.77 781.21"
/>
<path stroke="#7f6501" vector-effect="non-scaling-stroke" d="
  M 196.49 781.79
  C 196.20 782.16 195.98 782.57 195.85 783.02"
/>
<path stroke="#7f6501" vector-effect="non-scaling-stroke" d="
  M 195.26 783.96
  L 191.89 787.98"
/>
<path stroke="#7f6501" vector-effect="non-scaling-stroke" d="
  M 191.45 788.77
  L 189.89 791.04"
/>
<path stroke="#7f6501" vector-effect="non-scaling-stroke" d="
  M 189.43 791.77
  L 186.89 795.02"
/>
<path stroke="#7f6501" vector-effect="non-scaling-stroke" d="
  M 185.96 796.21
  L 184.75 798.20"
/>
<path stroke="#7f6501" vector-effect="non-scaling-stroke" d="
  M 184.51 798.77
  C 183.15 801.29 183.75 802.57 186.14 804.05
  C 188.20 805.32 190.13 806.70 191.94 808.17"
/>
<path stroke="#7f6501" vector-effect="non-scaling-stroke" d="
  M 192.95 809.23
  C 193.60 810.29 194.45 811.13 195.51 811.74
  C 195.82 811.92 196.17 812.01 196.52 812.01
  C 200.79 812.06 205.08 812.09 209.39 812.09
  C 210.30 812.09 211.02 812.43 211.54 813.12
  C 212.35 814.20 213.51 814.92 215.00 815.29"
/>
<path stroke="#7f6501" vector-effect="non-scaling-stroke" d="
  M 216.04 815.77
  C 218.11 816.68 220.22 817.20 222.37 817.33"
/>
<path stroke="#7f6501" vector-effect="non-scaling-stroke" d="
  M 224.94 818.03
  C 225.51 818.74 225.85 819.41 225.96 820.02"
/>
<path stroke="#7f6501" vector-effect="non-scaling-stroke" d="
  M 224.02 821.85
  C 222.17 822.14 221.57 823.74 220.26 824.38
  C 214.65 827.11 210.14 829.58 206.74 831.78
  C 204.69 833.11 204.35 835.00 205.72 837.47
  C 205.87 837.74 205.87 838.07 205.73 838.34
  C 205.00 839.74 202.56 842.31 202.58 844.70"
/>
<path stroke="#7f6501" vector-effect="non-scaling-stroke" d="
  M 202.74 846.87
  C 203.29 850.51 207.35 855.04 209.80 857.19
  C 214.24 861.06 218.44 864.14 223.97 866.31"
/>
<path stroke="#7f6501" vector-effect="non-scaling-stroke" d="
  M 225.00 866.69
  L 227.97 867.38"
/>
<path stroke="#7f6501" vector-effect="non-scaling-stroke" d="
  M 228.97 867.73
  C 231.80 867.96 233.95 868.16 237.30 868.68
  C 239.84 869.07 242.40 869.12 244.98 868.81"
/>
<path stroke="#7f6501" vector-effect="non-scaling-stroke" d="
  M 246.21 868.33
  L 247.98 867.70"
/>
<path stroke="#7f6501" vector-effect="non-scaling-stroke" d="
  M 250.04 867.78
  L 252.00 868.28"
/>
<path stroke="#7f6501" vector-effect="non-scaling-stroke" d="
  M 253.02 868.70
  C 253.99 869.10 254.91 868.89 255.80 868.06
  C 256.56 867.35 257.33 866.68 258.10 866.07"
/>
<path stroke="#7f6501" vector-effect="non-scaling-stroke" d="
  M 259.12 865.27
  L 261.85 864.34
  C 262.19 864.22 262.56 864.24 262.89 864.40
  L 266.95 866.35"
/>
<path stroke="#7f6501" vector-effect="non-scaling-stroke" d="
  M 267.97 866.69
  C 270.54 867.38 272.90 867.27 275.03 866.34"
/>
<path stroke="#7f6501" vector-effect="non-scaling-stroke" d="
  M 276.12 865.22
  C 276.81 865.13 277.43 864.95 277.99 864.68"
/>
<path stroke="#7f6501" vector-effect="non-scaling-stroke" d="
  M 280.07 864.74
  L 281.98 865.25"
/>
<path stroke="#7f6501" vector-effect="non-scaling-stroke" d="
  M 282.88 865.85
  C 284.79 866.94 286.67 867.36 288.52 867.10
  C 294.05 866.32 297.58 865.93 299.11 865.92
  C 300.70 865.91 301.80 865.72 302.41 865.36
  C 306.13 863.18 307.24 861.68 312.01 862.08
  C 314.50 862.29 316.81 861.96 318.92 861.09"
/>
<path stroke="#7f6501" vector-effect="non-scaling-stroke" d="
  M 320.05 860.21
  L 323.47 858.27"
/>
<path stroke="#7f6501" vector-effect="non-scaling-stroke" d="
  M 325.15 857.03
  C 326.42 855.02 328.21 853.76 330.54 853.25
  C 330.85 853.18 331.18 853.21 331.47 853.33
  L 333.01 853.97"
/>
<path stroke="#7f6501" vector-effect="non-scaling-stroke" d="
  M 335.00 856.10
  C 335.25 856.97 335.75 857.56 336.48 857.88
  C 336.79 858.02 337.15 858.02 337.45 857.87
  C 338.63 857.32 339.59 856.58 340.33 855.65
  C 340.54 855.39 340.78 855.17 341.06 854.99
  L 343.01 853.73"
/>
<path stroke="#7f6501" vector-effect="non-scaling-stroke" d="
  M 344.00 853.25
  C 345.65 852.89 346.98 852.98 347.98 853.51
  C 351.53 855.42 355.16 857.05 358.85 858.41"
/>
<path stroke="#7f6501" vector-effect="non-scaling-stroke" d="
  M 360.01 858.74
  C 362.02 859.12 364.01 859.16 365.99 858.85"
/>
<path stroke="#7f6501" vector-effect="non-scaling-stroke" d="
  M 366.94 857.97
  C 367.25 856.10 367.17 854.72 366.69 853.81
  C 365.52 851.60 364.98 849.43 365.07 847.28"
/>
<path stroke="#7f6501" vector-effect="non-scaling-stroke" d="
  M 365.68 845.80
  C 366.70 842.90 369.81 840.49 372.91 841.35"
/>
<path stroke="#7f6501" vector-effect="non-scaling-stroke" d="
  M 375.01 842.79
  C 376.16 843.60 377.49 844.10 379.02 844.30"
/>
<path stroke="#7f6501" vector-effect="non-scaling-stroke" d="
  M 380.03 844.71
  C 383.50 845.91 386.31 848.11 388.46 851.32"
/>
<path stroke="#7f6501" vector-effect="non-scaling-stroke" d="
  M 389.82 853.21
  L 391.51 858.28"
/>
<path stroke="#7f6501" vector-effect="non-scaling-stroke" d="
  M 391.77 859.76
  L 392.32 867.91"
/>
<path stroke="#7f6501" vector-effect="non-scaling-stroke" d="
  M 392.68 873.76
  L 392.72 879.23"
/>
<path stroke="#7f6501" vector-effect="non-scaling-stroke" d="
  M 392.72 880.79
  C 392.63 881.00 392.61 881.23 392.64 881.47"
/>
<path stroke="#7f6501" vector-effect="non-scaling-stroke" d="
  M 392.49 884.77
  L 391.72 897.24"
/>
<path stroke="#7f6501" vector-effect="non-scaling-stroke" d="
  M 391.53 901.72
  L 390.78 909.28"
/>
<path stroke="#7f6501" vector-effect="non-scaling-stroke" d="
  M 390.56 909.75
  C 389.83 913.58 388.57 917.23 386.78 920.72"
/>
<path stroke="#7f6501" vector-effect="non-scaling-stroke" d="
  M 386.31 921.96
  L 385.74 923.19"
/>
<path stroke="#7f6501" vector-effect="non-scaling-stroke" d="
  M 385.46 923.78
  L 384.60 926.21"
/>
<path stroke="#7f6501" vector-effect="non-scaling-stroke" d="
  M 384.37 926.86
  C 384.70 928.29 385.17 929.74 385.78 931.23
  C 386.19 932.22 386.12 933.54 385.59 935.21"
/>
<path stroke="#7f6501" vector-effect="non-scaling-stroke" d="
  M 385.51 935.76
  L 383.86 940.78"
/>
<path stroke="#7f6501" vector-effect="non-scaling-stroke" d="
  M 383.46 941.78
  L 382.72 944.15"
/>
<path stroke="#7f6501" vector-effect="non-scaling-stroke" d="
  M 382.55 944.79
  C 380.16 950.20 380.10 956.68 384.40 960.34
  C 386.41 962.05 389.26 963.77 392.95 965.50"
/>
<path stroke="#7f6501" vector-effect="non-scaling-stroke" d="
  M 394.05 965.71
  C 396.45 966.34 399.03 964.52 401.18 963.64"
/>
<path stroke="#7f6501" vector-effect="non-scaling-stroke" d="
  M 402.02 963.74
  C 404.40 965.44 405.51 968.06 407.01 970.47
  C 407.79 971.72 409.46 972.98 412.02 974.25"
/>
<path stroke="#7f6501" vector-effect="non-scaling-stroke" d="
  M 413.02 974.79
  C 417.19 975.73 420.62 974.41 423.33 970.84"
/>
<path stroke="#7f6501" vector-effect="non-scaling-stroke" d="
  M 423.56 970.29
  C 424.80 966.06 424.21 962.60 421.80 959.93"
/>
<path stroke="#7f6501" vector-effect="non-scaling-stroke" d="
  M 421.24 959.11
  L 414.92 950.55
  C 414.74 950.30 414.60 950.04 414.49 949.75
  L 413.39 946.75"
/>
<path stroke="#7f6501" vector-effect="non-scaling-stroke" d="
  M 413.60 944.14
  L 414.17 943.03"
/>
<path stroke="#7f6501" vector-effect="non-scaling-stroke" d="
  M 414.96 941.78
  L 419.07 937.27"
/>
<path stroke="#7f6501" vector-effect="non-scaling-stroke" d="
  M 420.08 936.22
  L 423.06 933.55
  C 423.27 933.36 423.50 933.20 423.74 933.07
  C 425.05 932.33 426.07 931.96 426.79 931.97
  C 431.62 932.04 435.53 932.05 438.53 932.01
  C 439.50 931.99 440.39 931.47 440.87 930.64
  C 441.92 928.85 442.19 926.80 441.70 924.51
  C 440.97 921.12 440.79 917.69 441.18 914.21"
/>
<path stroke="#7f6501" vector-effect="non-scaling-stroke" d="
  M 441.80 912.86
  C 442.93 911.16 444.32 909.79 445.98 908.75"
/>
<path stroke="#7f6501" vector-effect="non-scaling-stroke" d="
  M 447.20 908.23
  C 449.61 908.29 451.61 907.85 453.19 906.92"
/>
<path stroke="#7f6501" vector-effect="non-scaling-stroke" d="
  M 453.98 905.80
  C 455.98 903.52 457.39 901.01 458.20 898.26"
/>
<path stroke="#7f6501" vector-effect="non-scaling-stroke" d="
  M 458.57 897.18
  C 459.20 895.13 460.71 893.68 463.12 892.85"
/>
<path stroke="#7f6501" vector-effect="non-scaling-stroke" d="
  M 464.08 892.22
  L 466.97 891.76"
/>
<path stroke="#7f6501" vector-effect="non-scaling-stroke" d="
  M 467.97 891.89
  L 471.99 893.32"
/>
<path stroke="#7f6501" vector-effect="non-scaling-stroke" d="
  M 472.79 893.69
  C 475.80 893.86 478.69 894.50 481.46 895.59
  C 481.69 895.68 481.92 895.75 482.17 895.78
  C 484.86 896.18 487.54 896.06 490.21 895.41
  C 490.46 895.34 490.72 895.30 490.99 895.27
  C 491.76 895.19 494.29 895.07 498.58 894.90
  C 499.36 894.87 500.25 894.43 501.24 893.58"
/>
<path stroke="#7f6501" vector-effect="non-scaling-stroke" d="
  M 503.13 892.21
  L 511.00 884.97"
/>
<path stroke="#7f6501" vector-effect="non-scaling-stroke" d="
  M 512.01 883.87
  C 516.83 879.04 520.63 873.55 523.41 867.40
  C 523.91 866.29 525.10 865.07 526.99 863.73"
/>
<path stroke="#7f6501" vector-effect="non-scaling-stroke" d="
  M 528.01 863.19
  L 540.96 858.77"
/>
<path stroke="#7f6501" vector-effect="non-scaling-stroke" d="
  M 542.07 858.23
  C 544.64 856.25 544.11 850.40 544.18 846.20"
/>
<path stroke="#7f6501" vector-effect="non-scaling-stroke" d="
  M 544.66 844.75
  C 547.59 840.22 550.02 835.45 551.95 830.44
  C 552.10 830.04 552.18 829.63 552.18 829.21"
/>
<path stroke="#7f6501" vector-effect="non-scaling-stroke" d="
  M 552.75 827.80
  L 553.28 825.73"
/>
<path stroke="#7f6501" vector-effect="non-scaling-stroke" d="
  M 553.55 824.24
  C 554.53 821.31 554.02 817.11 553.97 813.99
  C 553.95 812.60 554.72 810.56 556.29 807.85"
/>
<path stroke="#7f6501" vector-effect="non-scaling-stroke" d="
  M 556.53 807.21
  L 557.18 806.04"
/>
<path stroke="#7f6501" vector-effect="non-scaling-stroke" d="
  M 558.01 804.80
  L 559.08 803.20"
/>
<path stroke="#7f6501" vector-effect="non-scaling-stroke" d="
  M 559.92 801.76
  C 562.53 798.32 564.32 794.61 565.30 790.64"
/>
<path stroke="#7f6501" vector-effect="non-scaling-stroke" d="
  M 565.30 786.22
  C 565.25 785.40 564.98 784.60 564.49 783.81"
/>
<path stroke="#7f6501" vector-effect="non-scaling-stroke" d="
  M 564.29 783.12
  L 560.51 776.81"
/>
<path stroke="#7f6501" vector-effect="non-scaling-stroke" d="
  M 560.21 776.19
  L 557.97 772.19"
/>
<path stroke="#7f6501" vector-effect="non-scaling-stroke" d="
  M 557.22 770.94
  L 556.50 768.68"
/>
<path stroke="#7f6501" vector-effect="non-scaling-stroke" d="
  M 556.25 767.45
  L 556.30 763.79"
/>
<path stroke="#7f6501" vector-effect="non-scaling-stroke" d="
  M 556.49 763.20
  C 556.96 761.64 556.96 760.00 556.51 758.29"
/>
<path stroke="#7f6501" vector-effect="non-scaling-stroke" d="
  M 556.35 757.18
  C 555.99 751.21 554.79 746.18 555.30 739.63"
/>
<path stroke="#7f6501" vector-effect="non-scaling-stroke" d="
  M 555.45 738.21
  L 556.19 732.21"
/>
<path stroke="#7f6501" vector-effect="non-scaling-stroke" d="
  M 556.38 731.17
  C 560.49 723.64 563.94 715.84 566.74 707.76
  C 567.36 705.97 568.57 703.96 570.38 701.72
  C 570.54 701.53 570.65 701.30 570.70 701.06
  L 572.31 693.77"
/>
<path stroke="#7f6501" vector-effect="non-scaling-stroke" d="
  M 572.33 687.35
  C 572.27 686.55 572.08 685.77 571.75 685.02"
/>
<path stroke="#7f6501" vector-effect="non-scaling-stroke" d="
  M 571.57 684.09
  L 569.53 678.71"
/>
<path stroke="#7f6501" vector-effect="non-scaling-stroke" d="
  M 569.29 678.02
  C 568.93 674.36 567.54 671.34 565.11 668.97"
/>
<path stroke="#7f6501" vector-effect="non-scaling-stroke" d="
  M 564.49 668.13
  C 560.04 663.44 558.63 658.92 556.70 651.97"
/>
<path stroke="#7f6501" vector-effect="non-scaling-stroke" d="
  M 556.81 650.23
  C 557.38 645.52 557.28 641.44 556.52 637.99
  C 555.40 632.93 554.99 628.54 555.28 624.83"
/>
<path stroke="#7f6501" vector-effect="non-scaling-stroke" d="
  M 555.56 623.78
  L 556.35 615.57"
/>
<path stroke="#7f6501" vector-effect="non-scaling-stroke" d="
  M 556.53 614.26
  C 556.91 613.12 556.91 611.96 556.52 610.79"
/>
<path stroke="#7f6501" vector-effect="non-scaling-stroke" d="
  M 556.31 610.03
  C 554.76 604.02 551.85 598.92 547.56 594.72"
/>
<path stroke="#7f6501" vector-effect="non-scaling-stroke" d="
  M 547.24 594.16
  L 542.73 587.95"
/>
<path stroke="#7f6501" vector-effect="non-scaling-stroke" d="
  M 542.29 586.88
  C 540.80 583.93 539.91 580.81 539.63 577.54"
/>
<path stroke="#7f6501" vector-effect="non-scaling-stroke" d="
  M 539.22 576.46
  C 539.23 576.34 539.26 576.23 539.31 576.14"
/>
<path stroke="#7f6501" vector-effect="non-scaling-stroke" d="
  M 539.38 575.35
  C 538.83 570.72 537.83 566.56 536.38 562.87
  C 535.85 561.54 534.90 560.17 533.52 558.76"
/>
<path stroke="#7f6501" vector-effect="non-scaling-stroke" d="
  M 532.25 557.13
  C 531.19 555.71 529.88 554.47 528.31 553.40
  C 528.02 553.20 527.76 552.96 527.55 552.69
  C 524.72 549.01 521.93 544.78 518.03 543.80"
/>
<path stroke="#7f6501" vector-effect="non-scaling-stroke" d="
  M 517.19 543.70
  C 514.99 543.83 512.53 544.62 509.81 546.07
  C 508.84 546.58 507.52 546.85 505.85 546.88
  C 505.53 546.89 505.21 546.82 504.91 546.69
  L 489.02 539.85"
/>
<path stroke="#7f6501" vector-effect="non-scaling-stroke" d="
  M 488.04 539.23
  L 485.96 537.97"
/>
<path stroke="#7f6501" vector-effect="non-scaling-stroke" d="
  M 485.05 537.24
  L 481.00 533.90"
/>
<path stroke="#7f6501" vector-effect="non-scaling-stroke" d="
  M 480.22 533.17
  C 479.93 532.56 479.52 532.19 478.98 532.05"
/>
<path stroke="#7f6501" vector-effect="non-scaling-stroke" d="
  M 478.26 531.12
  L 475.52 527.73"
/>
<path stroke="#7f6501" vector-effect="non-scaling-stroke" d="
  M 475.18 527.14
  C 474.01 524.07 473.72 520.77 474.29 517.22"
/>
<path stroke="#7f6501" vector-effect="non-scaling-stroke" d="
  M 474.54 516.21
  L 475.29 509.79"
/>
<path stroke="#7f6501" vector-effect="non-scaling-stroke" d="
  M 475.46 509.20
  C 476.35 506.42 473.89 502.05 472.21 499.56
  C 471.36 498.30 469.98 497.34 468.07 496.69"
/>
<path stroke="#7f6501" vector-effect="non-scaling-stroke" d="
  M 467.10 496.44
  L 446.05 495.78"
/>
<path stroke="#7f6501" vector-effect="non-scaling-stroke" d="
  M 445.08 495.43
  L 438.97 494.33"
/>
<path stroke="#7f6501" vector-effect="non-scaling-stroke" d="
  M 438.09 494.21
  C 437.76 494.02 437.41 493.90 437.03 493.85"
/>
<path stroke="#7f6501" vector-effect="non-scaling-stroke" d="
  M 436.02 493.50
  C 430.57 491.75 424.03 488.70 420.56 483.67"
/>
<path stroke="#7f6501" vector-effect="non-scaling-stroke" d="
  M 420.23 483.18
  C 419.31 481.87 418.64 481.06 418.23 480.75
  C 416.88 479.76 414.30 477.59 410.49 474.24
  C 407.62 471.72 404.09 471.15 399.90 472.52"
/>
</g>
<path fill="#000000" d="
  M 420.23 483.18
  C 420.04 483.21 420.02 483.36 420.15 483.61
  C 420.26 483.82 420.40 483.84 420.56 483.67
  C 424.03 488.70 430.57 491.75 436.02 493.50
  C 436.29 493.92 436.63 494.04 437.03 493.85
  C 437.41 493.90 437.76 494.02 438.09 494.21
  C 438.22 494.63 438.78 494.82 438.97 494.33
  L 445.08 495.43
  C 445.15 495.67 445.31 495.82 445.54 495.87
  C 445.59 495.88 445.64 495.88 445.69 495.87
  L 446.05 495.78
  L 467.10 496.44
  C 467.17 496.70 467.32 496.85 467.53 496.90
  C 467.90 496.99 468.08 496.92 468.07 496.69
  C 469.98 497.34 471.36 498.30 472.21 499.56
  C 473.89 502.05 476.35 506.42 475.46 509.20
  C 475.05 509.29 475.00 509.48 475.29 509.79
  L 474.54 516.21
  C 474.07 516.48 473.99 516.82 474.29 517.22
  C 473.72 520.77 474.01 524.07 475.18 527.14
  C 475.07 527.25 475.06 527.41 475.15 527.61
  C 475.22 527.78 475.35 527.82 475.52 527.73
  L 478.26 531.12
  C 477.97 531.51 478.21 531.82 478.98 532.05
  C 479.52 532.19 479.93 532.56 480.22 533.17
  C 480.08 533.36 480.11 533.54 480.30 533.71
  C 480.76 534.12 480.99 534.19 481.00 533.90
  L 485.05 537.24
  C 485.06 537.57 485.20 537.82 485.48 537.99
  C 485.79 538.18 485.95 538.18 485.96 537.97
  L 488.04 539.23
  C 488.17 539.79 488.49 540.00 489.02 539.85
  L 504.91 546.69
  C 505.21 546.82 505.53 546.89 505.85 546.88
  C 507.52 546.85 508.84 546.58 509.81 546.07
  C 512.53 544.62 514.99 543.83 517.19 543.70
  C 517.48 543.91 517.76 543.94 518.03 543.80
  C 521.93 544.78 524.72 549.01 527.55 552.69
  C 527.76 552.96 528.02 553.20 528.31 553.40
  C 529.88 554.47 531.19 555.71 532.25 557.13
  C 532.07 557.63 532.33 558.00 533.04 558.24
  C 533.07 558.53 533.23 558.70 533.52 558.76
  C 534.90 560.17 535.85 561.54 536.38 562.87
  C 537.83 566.56 538.83 570.72 539.38 575.35
  C 539.06 575.48 539.04 575.75 539.31 576.14
  C 539.26 576.23 539.23 576.34 539.22 576.46
  C 539.16 576.96 539.30 577.32 539.63 577.54
  C 539.91 580.81 540.80 583.93 542.29 586.88
  C 542.00 587.35 542.14 587.71 542.73 587.95
  L 547.24 594.16
  C 547.05 594.21 547.02 594.37 547.14 594.62
  C 547.21 594.78 547.35 594.81 547.56 594.72
  C 551.85 598.92 554.76 604.02 556.31 610.03
  C 556.15 610.21 556.11 610.40 556.18 610.61
  C 556.23 610.76 556.35 610.82 556.52 610.79
  C 556.91 611.96 556.91 613.12 556.53 614.26
  C 555.96 614.61 555.90 615.04 556.35 615.57
  L 555.56 623.78
  C 555.03 624.06 554.94 624.41 555.28 624.83
  C 554.99 628.54 555.40 632.93 556.52 637.99
  C 557.28 641.44 557.38 645.52 556.81 650.23
  C 555.71 650.44 556.19 651.51 556.70 651.97
  C 558.63 658.92 560.04 663.44 564.49 668.13
  C 563.98 668.57 564.18 668.85 565.11 668.97
  C 567.54 671.34 568.93 674.36 569.29 678.02
  C 569.18 678.34 569.26 678.57 569.53 678.71
  L 571.57 684.09
  C 571.23 684.20 571.14 684.42 571.30 684.74
  C 571.39 684.93 571.54 685.02 571.75 685.02
  C 572.08 685.77 572.27 686.55 572.33 687.35
  L 572.31 693.77
  L 570.70 701.06
  C 570.65 701.30 570.54 701.53 570.38 701.72
  C 568.57 703.96 567.36 705.97 566.74 707.76
  C 563.94 715.84 560.49 723.64 556.38 731.17
  C 556.08 731.32 556.02 731.67 556.19 732.21
  L 555.45 738.21
  C 554.99 738.53 554.94 739.00 555.30 739.63
  C 554.79 746.18 555.99 751.21 556.35 757.18
  C 556.04 757.35 555.94 757.61 556.07 757.96
  C 556.17 758.23 556.32 758.34 556.51 758.29
  C 556.96 760.00 556.96 761.64 556.49 763.20
  C 556.05 763.28 555.99 763.48 556.30 763.79
  L 556.25 767.45
  C 556.00 768.17 556.08 768.58 556.50 768.68
  L 557.22 770.94
  C 557.03 771.45 557.28 771.86 557.97 772.19
  L 560.21 776.19
  C 559.94 776.49 560.04 776.70 560.51 776.81
  L 564.29 783.12
  C 563.88 783.41 563.94 783.64 564.49 783.81
  C 564.98 784.60 565.25 785.40 565.30 786.22
  C 564.96 787.72 564.96 789.19 565.30 790.64
  C 564.32 794.61 562.53 798.32 559.92 801.76
  C 559.25 802.01 558.97 802.49 559.08 803.20
  L 558.01 804.80
  C 557.18 805.05 556.90 805.46 557.18 806.04
  L 556.53 807.21
  C 556.26 807.19 556.10 807.28 556.05 807.49
  C 556.00 807.68 556.08 807.80 556.29 807.85
  C 554.72 810.56 553.95 812.60 553.97 813.99
  C 554.02 817.11 554.53 821.31 553.55 824.24
  C 553.06 824.55 552.97 825.05 553.28 825.73
  L 552.75 827.80
  C 552.20 828.15 552.01 828.62 552.18 829.21
  C 552.18 829.63 552.10 830.04 551.95 830.44
  C 550.02 835.45 547.59 840.22 544.66 844.75
  C 544.13 845.26 543.97 845.75 544.18 846.20
  C 544.11 850.40 544.64 856.25 542.07 858.23
  C 541.74 857.70 541.37 857.88 540.96 858.77
  L 528.01 863.19
  C 527.81 863.05 527.61 863.04 527.40 863.16
  C 527.19 863.28 527.06 863.47 526.99 863.73
  C 525.10 865.07 523.91 866.29 523.41 867.40
  C 520.63 873.55 516.83 879.04 512.01 883.87
  C 511.34 883.88 511.00 884.24 511.00 884.97
  L 503.13 892.21
  C 502.64 891.64 502.01 892.09 501.24 893.58
  C 500.25 894.43 499.36 894.87 498.58 894.90
  C 494.29 895.07 491.76 895.19 490.99 895.27
  C 490.72 895.30 490.46 895.34 490.21 895.41
  C 487.54 896.06 484.86 896.18 482.17 895.78
  C 481.92 895.75 481.69 895.68 481.46 895.59
  C 478.69 894.50 475.80 893.86 472.79 893.69
  C 472.96 893.18 472.69 893.06 471.99 893.32
  L 467.97 891.89
  C 467.96 891.62 467.88 891.43 467.73 891.30
  C 467.35 890.96 467.05 891.42 466.97 891.76
  L 464.08 892.22
  C 463.91 891.87 463.62 891.86 463.21 892.20
  C 462.95 892.41 462.92 892.63 463.12 892.85
  C 460.71 893.68 459.20 895.13 458.57 897.18
  C 458.06 897.20 457.93 897.56 458.20 898.26
  C 457.39 901.01 455.98 903.52 453.98 905.80
  C 453.23 906.03 452.97 906.40 453.19 906.92
  C 451.61 907.85 449.61 908.29 447.20 908.23
  C 446.98 908.12 446.75 908.09 446.51 908.14
  C 446.16 908.22 445.98 908.42 445.98 908.75
  C 444.32 909.79 442.93 911.16 441.80 912.86
  C 441.11 913.16 440.90 913.61 441.18 914.21
  C 440.79 917.69 440.97 921.12 441.70 924.51
  C 442.19 926.80 441.92 928.85 440.87 930.64
  C 440.39 931.47 439.50 931.99 438.53 932.01
  C 435.53 932.05 431.62 932.04 426.79 931.97
  C 426.07 931.96 425.05 932.33 423.74 933.07
  C 423.50 933.20 423.27 933.36 423.06 933.55
  L 420.08 936.22
  C 419.51 935.71 419.18 936.06 419.07 937.27
  L 414.96 941.78
  C 414.08 942.13 413.82 942.54 414.17 943.03
  L 413.60 944.14
  C 412.92 944.63 412.85 945.50 413.39 946.75
  L 414.49 949.75
  C 414.60 950.04 414.74 950.30 414.92 950.55
  L 421.24 959.11
  C 421.09 959.32 421.09 959.54 421.26 959.76
  C 421.35 959.87 421.53 959.93 421.80 959.93
  C 424.21 962.60 424.80 966.06 423.56 970.29
  C 423.44 970.12 423.31 970.15 423.18 970.40
  C 423.03 970.69 423.08 970.84 423.33 970.84
  C 420.62 974.41 417.19 975.73 413.02 974.79
  C 412.76 974.18 412.43 974.00 412.02 974.25
  C 409.46 972.98 407.79 971.72 407.01 970.47
  C 405.51 968.06 404.40 965.44 402.02 963.74
  C 401.91 963.51 401.74 963.34 401.53 963.22
  C 401.43 963.16 401.30 963.17 401.21 963.25
  C 401.09 963.36 401.08 963.49 401.18 963.64
  C 399.03 964.52 396.45 966.34 394.05 965.71
  C 393.30 964.76 392.94 964.69 392.95 965.50
  C 389.26 963.77 386.41 962.05 384.40 960.34
  C 380.10 956.68 380.16 950.20 382.55 944.79
  C 383.00 944.60 383.05 944.38 382.72 944.15
  L 383.46 941.78
  C 383.87 941.86 384.01 941.53 383.86 940.78
  L 385.51 935.76
  C 385.76 935.76 385.88 935.65 385.88 935.43
  C 385.87 935.33 385.78 935.26 385.59 935.21
  C 386.12 933.54 386.19 932.22 385.78 931.23
  C 385.17 929.74 384.70 928.29 384.37 926.86
  C 384.76 926.77 384.94 926.64 384.90 926.49
  C 384.87 926.38 384.77 926.28 384.60 926.21
  L 385.46 923.78
  C 385.66 923.83 385.79 923.78 385.85 923.63
  C 385.96 923.33 385.93 923.18 385.74 923.19
  L 386.31 921.96
  C 386.88 921.76 387.04 921.35 386.78 920.72
  C 388.57 917.23 389.83 913.58 390.56 909.75
  C 390.93 909.64 391.00 909.48 390.78 909.28
  L 391.53 901.72
  C 392.03 900.33 392.09 898.84 391.72 897.24
  L 392.49 884.77
  C 393.06 883.23 393.14 881.38 392.72 879.23
  L 392.68 873.76
  C 393.18 871.69 393.06 869.74 392.32 867.91
  L 391.77 859.76
  C 392.06 859.11 391.98 858.61 391.51 858.28
  L 389.82 853.21
  C 390.01 852.52 389.56 851.89 388.46 851.32
  C 386.31 848.11 383.50 845.91 380.03 844.71
  C 379.31 843.83 378.97 843.69 379.02 844.30
  C 377.49 844.10 376.16 843.60 375.01 842.79
  C 373.86 841.09 373.16 840.61 372.91 841.35
  C 369.81 840.49 366.70 842.90 365.68 845.80
  C 365.13 845.95 364.93 846.44 365.07 847.28
  C 364.98 849.43 365.52 851.60 366.69 853.81
  C 367.17 854.72 367.25 856.10 366.94 857.97
  C 366.67 857.84 366.43 857.85 366.22 858.01
  C 365.96 858.21 365.88 858.49 365.99 858.85
  C 364.01 859.16 362.02 859.12 360.01 858.74
  C 359.89 858.34 359.64 858.06 359.26 857.89
  C 359.12 857.84 358.98 858.01 358.85 858.41
  C 355.16 857.05 351.53 855.42 347.98 853.51
  C 346.98 852.98 345.65 852.89 344.00 853.25
  C 343.52 852.98 343.19 853.14 343.01 853.73
  L 341.06 854.99
  C 340.78 855.17 340.54 855.39 340.33 855.65
  C 339.59 856.58 338.63 857.32 337.45 857.87
  C 337.15 858.02 336.79 858.02 336.48 857.88
  C 335.75 857.56 335.25 856.97 335.00 856.10
  C 334.67 855.08 334.00 854.37 333.01 853.97
  L 331.47 853.33
  C 331.18 853.21 330.85 853.18 330.54 853.25
  C 328.21 853.76 326.42 855.02 325.15 857.03
  C 324.59 856.73 324.03 857.14 323.47 858.27
  L 320.05 860.21
  C 319.68 859.70 319.30 859.99 318.92 861.09
  C 316.81 861.96 314.50 862.29 312.01 862.08
  C 307.24 861.68 306.13 863.18 302.41 865.36
  C 301.80 865.72 300.70 865.91 299.11 865.92
  C 297.58 865.93 294.05 866.32 288.52 867.10
  C 286.67 867.36 284.79 866.94 282.88 865.85
  C 282.56 864.79 282.26 864.59 281.98 865.25
  L 280.07 864.74
  C 279.08 863.80 278.38 863.78 277.99 864.68
  C 277.43 864.95 276.81 865.13 276.12 865.22
  C 275.81 865.04 275.53 865.07 275.28 865.30
  C 275.10 865.46 275.02 865.81 275.03 866.34
  C 272.90 867.27 270.54 867.38 267.97 866.69
  C 267.43 865.79 267.09 865.68 266.95 866.35
  L 262.89 864.40
  C 262.56 864.24 262.19 864.22 261.85 864.34
  L 259.12 865.27
  C 258.81 865.06 258.53 865.06 258.28 865.29
  C 258.08 865.46 258.02 865.72 258.10 866.07
  C 257.33 866.68 256.56 867.35 255.80 868.06
  C 254.91 868.89 253.99 869.10 253.02 868.70
  C 252.46 867.81 252.12 867.67 252.00 868.28
  L 250.04 867.78
  C 249.32 866.83 248.63 866.81 247.98 867.70
  L 246.21 868.33
  C 245.73 867.91 244.94 868.08 244.98 868.81
  C 242.40 869.12 239.84 869.07 237.30 868.68
  C 233.95 868.16 231.80 867.96 228.97 867.73
  C 228.92 867.50 228.84 867.36 228.74 867.30
  C 228.53 867.17 228.27 867.19 227.97 867.38
  L 225.00 866.69
  C 224.40 865.83 224.06 865.70 223.97 866.31
  C 218.44 864.14 214.24 861.06 209.80 857.19
  C 207.35 855.04 203.29 850.51 202.74 846.87
  C 202.99 846.14 202.94 845.42 202.58 844.70
  C 202.56 842.31 205.00 839.74 205.73 838.34
  C 205.87 838.07 205.87 837.74 205.72 837.47
  C 204.35 835.00 204.69 833.11 206.74 831.78
  C 210.14 829.58 214.65 827.11 220.26 824.38
  C 221.57 823.74 222.17 822.14 224.02 821.85
  C 224.94 821.70 225.59 821.09 225.96 820.02
  C 225.85 819.41 225.51 818.74 224.94 818.03
  C 224.91 817.06 224.06 816.82 222.37 817.33
  C 220.22 817.20 218.11 816.68 216.04 815.77
  C 215.36 814.83 215.01 814.67 215.00 815.29
  C 213.51 814.92 212.35 814.20 211.54 813.12
  C 211.02 812.43 210.30 812.09 209.39 812.09
  C 205.08 812.09 200.79 812.06 196.52 812.01
  C 196.17 812.01 195.82 811.92 195.51 811.74
  C 194.45 811.13 193.60 810.29 192.95 809.23
  C 192.76 808.04 192.42 807.69 191.94 808.17
  C 190.13 806.70 188.20 805.32 186.14 804.05
  C 183.75 802.57 183.15 801.29 184.51 798.77
  C 184.66 798.82 184.77 798.77 184.84 798.61
  C 184.95 798.32 184.92 798.18 184.75 798.20
  L 185.96 796.21
  C 186.67 796.02 186.98 795.62 186.89 795.02
  L 189.43 791.77
  C 190.00 792.02 189.96 791.34 189.89 791.04
  L 191.45 788.77
  C 191.64 788.84 191.79 788.80 191.90 788.65
  C 192.01 788.48 192.01 788.26 191.89 787.98
  L 195.26 783.96
  C 195.85 783.81 196.05 783.49 195.85 783.02
  C 195.98 782.57 196.20 782.16 196.49 781.79
  C 196.96 781.93 197.08 781.21 196.77 781.21
  L 197.48 779.80
  C 197.95 779.71 198.04 779.50 197.75 779.18
  C 197.88 778.64 198.12 778.18 198.46 777.79
  C 198.86 777.86 199.00 777.52 198.89 776.79
  L 199.45 774.77
  C 199.92 774.61 200.01 774.28 199.72 773.79
  C 199.85 771.31 200.42 768.97 201.42 766.78
  C 201.87 766.83 202.01 766.58 201.85 766.02
  C 201.90 765.65 202.05 765.30 202.29 764.95
  C 202.84 764.84 203.03 764.54 202.84 764.03
  C 202.90 763.51 203.11 763.10 203.46 762.79
  C 203.63 762.84 203.76 762.81 203.86 762.68
  C 203.88 762.65 203.89 762.62 203.89 762.59
  L 203.93 762.08
  C 205.91 757.85 207.87 755.09 209.80 753.80
  C 213.35 751.44 217.56 749.25 220.24 745.92
  C 220.80 745.87 221.01 745.57 220.88 745.03
  L 221.48 743.79
  C 221.98 743.94 222.07 743.18 221.75 743.19
  L 222.47 741.79
  C 222.95 741.88 223.05 741.18 222.74 741.18
  C 222.91 740.65 223.15 740.19 223.46 739.79
  C 223.87 739.82 224.00 739.57 223.85 739.03
  C 223.92 738.54 224.13 738.12 224.47 737.79
  C 224.86 737.86 225.00 737.53 224.89 736.80
  L 225.54 734.78
  C 225.88 734.81 225.99 734.47 225.86 733.78
  L 224.69 723.82
  C 224.88 723.75 224.93 723.60 224.84 723.39
  C 224.78 723.24 224.67 723.19 224.52 723.22
  C 223.77 720.97 223.76 718.83 224.51 716.80
  C 224.98 716.67 225.06 716.33 224.75 715.78
  C 225.47 713.41 225.25 711.70 224.10 710.64
  C 221.05 707.85 220.16 704.55 221.42 700.72
  C 221.55 700.81 221.64 700.74 221.71 700.50
  C 221.78 700.27 221.70 700.18 221.48 700.21
  C 221.56 699.41 221.81 698.66 222.24 697.97
  C 222.81 697.79 223.00 697.40 222.82 696.79
  C 222.84 695.72 223.07 694.72 223.51 693.78
  C 223.74 693.79 223.86 693.70 223.87 693.50
  C 223.88 693.16 223.79 693.06 223.58 693.21
  L 224.45 690.77
  C 224.87 690.85 225.00 690.52 224.85 689.79
  C 224.94 689.03 225.17 688.37 225.56 687.80
  C 225.99 687.71 226.05 687.50 225.76 687.19
  L 226.30 685.98
  C 226.85 685.79 227.02 685.39 226.79 684.76
  C 227.61 679.86 232.03 677.68 234.75 675.00
  C 234.95 674.81 235.18 674.65 235.44 674.53
  L 243.08 671.13
  C 243.11 671.12 243.15 671.11 243.18 671.10
  C 247.83 669.72 250.97 668.62 253.35 664.98
  C 253.71 664.44 253.90 663.80 253.89 663.15
  C 253.86 660.52 254.37 658.06 255.42 655.79
  C 255.67 655.85 255.83 655.81 255.88 655.66
  C 255.95 655.47 255.94 655.27 255.87 655.04
  C 256.19 654.25 256.63 653.56 257.20 652.98
  C 258.19 652.44 258.79 651.72 258.98 650.81
  L 260.94 648.05
  C 261.72 648.07 262.02 647.70 261.83 646.95
  C 264.12 643.88 265.25 640.38 265.24 636.47
  C 265.24 636.01 265.36 635.80 265.60 635.83
  C 266.03 634.25 266.08 632.71 265.74 631.22
  C 265.61 628.85 266.05 626.78 267.06 625.01
  C 267.75 624.96 268.02 624.62 267.87 623.99
  C 269.11 622.44 271.22 621.54 271.92 619.91
  C 272.40 618.78 272.39 617.67 271.90 616.57
  C 270.17 612.68 266.88 610.09 262.03 608.81
  C 260.44 607.68 258.70 607.66 256.83 608.76
  L 240.10 608.73
  C 239.11 608.00 237.74 607.83 236.01 608.22
  C 232.81 607.59 228.68 605.66 227.75 602.24
  C 228.00 601.75 227.84 601.40 227.29 601.20
  C 226.65 596.26 228.20 592.42 227.59 587.78
  C 227.78 587.79 227.87 587.69 227.86 587.50
  C 227.86 587.30 227.72 587.23 227.45 587.28
  C 226.76 585.56 226.38 584.04 226.29 582.73
  C 225.87 576.22 226.33 569.68 225.75 563.21
  C 225.98 562.70 225.89 562.36 225.47 562.21
  L 224.82 560.21
  C 224.97 559.46 224.77 559.09 224.21 559.10
  C 222.01 554.89 220.14 552.07 218.60 550.64
  C 217.61 549.71 217.01 548.90 216.81 548.21
  C 217.05 547.64 216.79 547.18 216.03 546.84
  C 214.75 545.10 213.02 541.86 214.45 539.78
  C 214.65 539.84 214.78 539.79 214.85 539.62
  C 214.98 539.32 214.94 539.17 214.71 539.18
  C 215.66 537.59 216.77 536.51 218.04 535.93
  C 219.15 535.42 219.79 534.73 219.95 533.86
  C 223.15 530.15 226.18 527.86 227.49 522.81
  C 227.90 522.50 227.98 522.16 227.72 521.79
  L 228.50 515.79
  C 228.97 515.80 229.06 515.42 228.78 514.65
  C 229.93 511.90 231.68 509.36 234.02 507.04
  C 234.65 506.89 235.19 506.36 235.66 505.46
  C 241.74 501.06 247.33 496.33 254.00 492.72
  C 255.65 491.83 257.11 491.22 258.40 490.89
  C 260.94 490.23 263.18 488.80 265.99 488.27
  C 267.19 488.04 268.21 487.79 269.06 487.52
  C 269.42 487.41 269.82 487.45 270.15 487.64
  C 270.16 487.65 270.19 487.66 270.23 487.69
  C 270.36 487.79 270.52 487.84 270.69 487.85
  C 276.77 488.07 281.21 487.83 286.35 488.95
  C 288.48 489.41 291.06 489.90 294.08 490.41
  C 294.46 490.48 294.81 490.65 295.09 490.91
  C 297.18 492.83 299.47 494.30 301.96 495.31
  C 302.23 495.72 302.57 495.81 302.96 495.56
  C 303.46 495.41 303.95 495.43 304.44 495.60
  C 304.42 496.02 304.62 496.07 305.05 495.76
  C 311.16 496.89 317.34 497.21 323.59 496.74
  L 331.80 496.55
  C 334.01 495.85 335.74 495.54 336.99 495.62
  C 341.27 495.91 347.11 495.47 350.98 497.26
  C 351.07 497.62 351.28 497.83 351.63 497.88
  C 351.80 497.91 351.93 497.81 352.04 497.60
  C 355.17 498.31 357.18 499.99 360.17 502.33
  C 360.57 502.65 361.02 502.88 361.51 503.03
  L 363.04 503.49
  C 363.33 503.94 363.66 504.05 364.03 503.82
  C 367.50 503.77 370.69 502.78 373.60 500.84
  C 377.67 498.13 380.20 496.63 382.20 493.95
  C 382.87 493.93 383.07 493.51 382.81 492.69
  C 384.79 489.97 386.00 486.99 386.45 483.75
  C 387.02 483.39 387.12 482.89 386.74 482.24
  C 386.83 481.39 387.07 480.58 387.47 479.79
  C 387.96 479.95 388.10 479.19 387.72 479.24
  C 390.37 474.74 393.97 473.85 399.23 472.60
  C 399.56 472.93 399.78 472.90 399.90 472.52
  C 404.09 471.15 407.62 471.72 410.49 474.24
  C 414.30 477.59 416.88 479.76 418.23 480.75
  C 418.64 481.06 419.31 481.87 420.23 483.18
  Z
  M 355.01 644.82
  C 354.12 645.08 353.82 645.48 354.11 646.01
  L 352.27 648.85
  C 351.78 648.83 351.41 649.01 351.16 649.40
  C 351.03 649.60 351.01 649.88 351.08 650.24
  C 348.39 658.02 351.26 667.35 358.07 672.19
  C 358.24 672.98 358.55 673.24 359.01 672.99
  L 361.04 673.60
  C 361.33 673.91 361.64 674.00 361.97 673.87
  C 364.10 673.97 366.11 674.45 368.00 675.30
  C 368.26 675.86 368.61 676.01 369.04 675.74
  L 375.05 677.46
  C 375.13 677.70 375.30 677.85 375.57 677.90
  C 375.90 677.96 376.05 677.90 376.04 677.73
  C 380.51 678.28 383.24 676.54 386.96 674.02
  C 388.07 673.55 388.71 672.89 388.90 672.03
  C 390.13 670.08 391.01 667.98 391.54 665.73
  C 391.78 665.70 391.89 665.63 391.88 665.50
  C 391.87 665.37 391.75 665.28 391.51 665.21
  C 392.24 662.23 392.28 659.43 391.63 656.82
  C 392.04 656.69 391.92 656.41 391.27 655.98
  C 390.96 655.66 390.79 655.26 390.78 654.79
  C 390.97 654.51 390.85 654.37 390.42 654.36
  L 383.84 644.10
  C 383.92 643.41 383.78 643.20 383.43 643.45
  C 382.76 642.43 381.92 641.53 380.93 640.76
  C 380.88 640.48 380.73 640.32 380.47 640.28
  C 379.48 638.87 379.00 638.56 379.01 639.34
  C 373.17 636.81 363.85 635.27 358.97 640.46
  C 356.90 642.66 355.58 644.11 355.01 644.82
  Z
  M 482.02 845.51
  C 478.60 846.35 476.10 846.21 472.95 848.77
  C 472.37 848.90 472.05 849.40 471.98 850.29
  L 471.80 864.97
  C 470.67 866.22 470.64 867.89 471.69 869.99
  C 471.86 871.24 472.07 872.67 472.33 874.28
  C 473.02 878.55 475.66 880.89 480.26 881.28
  C 480.87 882.29 481.73 882.27 482.86 881.22
  L 484.96 880.74
  C 485.49 880.97 485.82 880.84 485.95 880.34
  C 488.01 879.77 489.78 880.13 491.25 881.43
  C 491.39 881.55 491.65 881.57 492.04 881.50
  C 492.19 881.78 492.42 881.83 492.73 881.66
  C 492.90 881.56 492.98 881.36 492.97 881.07
  C 497.06 879.71 497.06 871.51 496.81 867.61
  C 496.78 867.09 496.65 866.58 496.43 866.11
  C 495.22 863.57 494.50 861.94 494.27 861.23
  C 493.98 860.37 494.07 859.54 494.54 858.74
  C 495.19 856.47 495.12 854.16 494.35 851.79
  L 492.69 846.91
  C 492.97 846.68 492.90 846.38 492.47 846.00
  C 492.32 845.87 492.16 845.84 492.01 845.91
  C 489.56 844.85 486.81 844.69 483.77 845.42
  C 482.87 844.84 482.29 844.87 482.02 845.51
  Z"
/>
<g stroke-width="2.00" fill="none" stroke-linecap="butt">
<path stroke="#7f6501" vector-effect="non-scaling-stroke" d="
  M 354.11 646.01
  L 352.27 648.85"
/>
<path stroke="#7f6501" vector-effect="non-scaling-stroke" d="
  M 351.08 650.24
  C 348.39 658.02 351.26 667.35 358.07 672.19"
/>
<path stroke="#7f6501" vector-effect="non-scaling-stroke" d="
  M 359.01 672.99
  L 361.04 673.60"
/>
<path stroke="#7f6501" vector-effect="non-scaling-stroke" d="
  M 361.97 673.87
  C 364.10 673.97 366.11 674.45 368.00 675.30"
/>
<path stroke="#7f6501" vector-effect="non-scaling-stroke" d="
  M 369.04 675.74
  L 375.05 677.46"
/>
<path stroke="#7f6501" vector-effect="non-scaling-stroke" d="
  M 376.04 677.73
  C 380.51 678.28 383.24 676.54 386.96 674.02"
/>
<path stroke="#7f6501" vector-effect="non-scaling-stroke" d="
  M 388.90 672.03
  C 390.13 670.08 391.01 667.98 391.54 665.73"
/>
<path stroke="#7f6501" vector-effect="non-scaling-stroke" d="
  M 391.51 665.21
  C 392.24 662.23 392.28 659.43 391.63 656.82"
/>
<path stroke="#7f6501" vector-effect="non-scaling-stroke" d="
  M 391.27 655.98
  C 390.96 655.66 390.79 655.26 390.78 654.79"
/>
<path stroke="#7f6501" vector-effect="non-scaling-stroke" d="
  M 390.42 654.36
  L 383.84 644.10"
/>
<path stroke="#7f6501" vector-effect="non-scaling-stroke" d="
  M 383.43 643.45
  C 382.76 642.43 381.92 641.53 380.93 640.76"
/>
<path stroke="#7f6501" vector-effect="non-scaling-stroke" d="
  M 379.01 639.34
  C 373.17 636.81 363.85 635.27 358.97 640.46
  C 356.90 642.66 355.58 644.11 355.01 644.82"
/>
<path stroke="#7f6501" vector-effect="non-scaling-stroke" d="
  M 482.02 845.51
  C 478.60 846.35 476.10 846.21 472.95 848.77"
/>
<path stroke="#7f6501" vector-effect="non-scaling-stroke" d="
  M 471.98 850.29
  L 471.80 864.97"
/>
<path stroke="#7f6501" vector-effect="non-scaling-stroke" d="
  M 471.69 869.99
  C 471.86 871.24 472.07 872.67 472.33 874.28
  C 473.02 878.55 475.66 880.89 480.26 881.28"
/>
<path stroke="#7f6501" vector-effect="non-scaling-stroke" d="
  M 482.86 881.22
  L 484.96 880.74"
/>
<path stroke="#7f6501" vector-effect="non-scaling-stroke" d="
  M 485.95 880.34
  C 488.01 879.77 489.78 880.13 491.25 881.43
  C 491.39 881.55 491.65 881.57 492.04 881.50"
/>
<path stroke="#7f6501" vector-effect="non-scaling-stroke" d="
  M 492.97 881.07
  C 497.06 879.71 497.06 871.51 496.81 867.61
  C 496.78 867.09 496.65 866.58 496.43 866.11
  C 495.22 863.57 494.50 861.94 494.27 861.23
  C 493.98 860.37 494.07 859.54 494.54 858.74"
/>
<path stroke="#7f6501" vector-effect="non-scaling-stroke" d="
  M 494.35 851.79
  L 492.69 846.91"
/>
<path stroke="#7f6501" vector-effect="non-scaling-stroke" d="
  M 492.01 845.91
  C 489.56 844.85 486.81 844.69 483.77 845.42"
/>
</g>
<path fill="#fec902" d="
  M 379.01 639.34
  L 380.47 640.28
  C 380.58 640.45 380.73 640.61 380.93 640.76
  C 381.92 641.53 382.76 642.43 383.43 643.45
  C 383.66 643.66 383.80 643.88 383.84 644.10
  L 390.42 654.36
  L 390.78 654.79
  C 390.79 655.26 390.96 655.66 391.27 655.98
  C 391.30 656.33 391.42 656.61 391.63 656.82
  C 392.28 659.43 392.24 662.23 391.51 665.21
  C 391.65 665.11 391.66 665.28 391.54 665.73
  C 391.01 667.98 390.13 670.08 388.90 672.03
  L 386.96 674.02
  C 383.24 676.54 380.51 678.28 376.04 677.73
  C 375.75 677.56 375.42 677.47 375.05 677.46
  L 369.04 675.74
  C 368.73 675.52 368.39 675.37 368.00 675.30
  C 366.11 674.45 364.10 673.97 361.97 673.87
  C 361.71 673.62 361.40 673.53 361.04 673.60
  L 359.01 672.99
  L 358.07 672.19
  C 351.26 667.35 348.39 658.02 351.08 650.24
  L 352.27 648.85
  L 354.11 646.01
  C 354.46 645.72 354.76 645.32 355.01 644.82
  C 355.58 644.11 356.90 642.66 358.97 640.46
  C 363.85 635.27 373.17 636.81 379.01 639.34
  Z
  M 379.22 641.32
  C 375.39 639.30 370.97 638.56 365.96 639.10
  C 364.18 639.29 362.51 639.23 361.09 640.63
  C 359.04 642.66 356.50 645.65 353.46 649.60
  C 353.08 650.10 352.79 650.66 352.61 651.26
  C 350.18 659.38 353.31 666.62 360.47 671.37
  C 360.79 671.58 361.14 671.74 361.52 671.83
  C 365.81 672.87 369.76 674.02 373.39 675.28
  C 375.88 676.14 377.95 676.32 379.60 675.82
  C 386.66 673.66 390.29 668.80 390.48 661.24
  C 390.52 659.54 390.02 657.72 388.99 655.79
  C 386.18 650.54 383.10 645.86 379.76 641.76
  C 379.61 641.58 379.43 641.43 379.22 641.32
  Z"
/>
<path fill="#fec902" d="
  M 492.01 845.91
  L 492.69 846.91
  L 494.35 851.79
  L 494.54 858.74
  C 494.07 859.54 493.98 860.37 494.27 861.23
  C 494.50 861.94 495.22 863.57 496.43 866.11
  C 496.65 866.58 496.78 867.09 496.81 867.61
  C 497.06 871.51 497.06 879.71 492.97 881.07
  L 492.04 881.50
  C 491.65 881.57 491.39 881.55 491.25 881.43
  C 489.78 880.13 488.01 879.77 485.95 880.34
  C 485.46 880.31 485.13 880.45 484.96 880.74
  L 482.86 881.22
  L 480.26 881.28
  C 475.66 880.89 473.02 878.55 472.33 874.28
  C 472.07 872.67 471.86 871.24 471.69 869.99
  L 471.80 864.97
  L 471.98 850.29
  C 472.45 849.86 472.78 849.35 472.95 848.77
  C 476.10 846.21 478.60 846.35 482.02 845.51
  L 483.77 845.42
  C 486.81 844.69 489.56 844.85 492.01 845.91
  Z
  M 492.77 879.17
  C 493.85 878.76 494.53 877.63 494.80 875.80
  C 495.42 871.56 494.94 867.53 493.37 863.72
  C 493.18 863.25 493.08 862.75 493.07 862.23
  C 493.00 857.67 493.54 852.30 491.42 848.14
  C 491.12 847.56 490.54 847.17 489.89 847.13
  C 486.36 846.89 482.48 847.18 478.23 848.01
  C 475.65 848.51 473.26 850.05 473.18 852.51
  C 473.07 855.46 473.50 858.53 473.22 861.83
  C 473.01 864.36 473.01 867.25 473.22 870.51
  C 473.67 877.57 477.22 880.62 483.87 879.66
  C 484.30 879.60 484.70 879.45 485.06 879.21
  C 487.47 877.64 489.75 877.59 491.92 879.07
  C 492.17 879.24 492.49 879.28 492.77 879.17
  Z"
/>
<path fill="#000000" d="
  M 392.72 880.79
  C 392.79 881.06 392.76 881.29 392.64 881.47
  C 392.61 881.23 392.63 881.00 392.72 880.79
  Z"
/>
</svg>
