<?xml version="1.0" encoding="UTF-8" standalone="no"?>
<!DOCTYPE svg PUBLIC "-//W3C//DTD SVG 1.1//EN" "http://www.w3.org/Graphics/SVG/1.1/DTD/svg11.dtd">
<svg xmlns="http://www.w3.org/2000/svg" version="1.1" viewBox="0.00 0.00 1642.00 1642.00" width="1642.00" height="1642.00">
<path fill="#0900ff" d="
  M 1329.71 1050.58
  C 1330.39 1050.92 1330.32 1051.92 1329.60 1052.17
  L 1322.17 1054.72
  C 1322.10 1054.75 1322.03 1054.78 1321.97 1054.82
  C 1318.50 1057.03 1314.72 1058.13 1310.64 1058.14
  C 1309.82 1058.15 1309.14 1058.80 1309.11 1059.62
  C 1309.01 1062.25 1308.11 1064.67 1306.40 1066.89
  C 1306.09 1067.29 1305.66 1067.59 1305.18 1067.75
  C 1302.31 1068.68 1299.54 1070.13 1296.85 1072.12
  C 1296.57 1072.33 1296.34 1072.61 1296.20 1072.92
  C 1295.67 1074.11 1295.27 1075.53 1294.99 1077.19
  C 1294.50 1080.08 1293.95 1080.99 1292.83 1083.36
  C 1291.57 1086.03 1291.96 1088.32 1294.04 1090.47
  C 1296.82 1093.34 1299.73 1096.26 1302.77 1099.24
  C 1304.14 1100.59 1304.45 1101.90 1303.70 1103.17
  C 1303.08 1104.22 1301.94 1106.92 1300.29 1111.29
  C 1299.13 1114.34 1294.94 1117.76 1291.87 1114.87
  C 1291.64 1114.66 1291.39 1114.50 1291.11 1114.38
  C 1288.20 1113.15 1286.46 1112.47 1285.87 1112.34
  C 1283.22 1111.73 1279.68 1111.16 1275.25 1110.61
  C 1270.11 1109.97 1264.78 1111.52 1259.53 1110.47
  C 1258.01 1110.17 1256.68 1109.80 1255.54 1109.36
  C 1255.02 1109.16 1254.57 1108.81 1254.24 1108.36
  C 1252.89 1106.55 1251.33 1104.16 1249.54 1101.19
  C 1248.97 1100.24 1248.39 1098.13 1247.80 1094.85
  C 1247.25 1091.80 1246.01 1088.62 1244.07 1085.31
  C 1242.40 1082.45 1239.42 1080.11 1237.15 1077.51
  C 1236.71 1077.00 1236.68 1076.26 1237.09 1075.72
  C 1239.87 1072.07 1242.53 1068.94 1245.08 1066.32
  C 1246.53 1064.83 1248.24 1063.87 1250.20 1063.44
  C 1258.30 1061.67 1265.46 1058.65 1271.67 1054.40
  C 1275.99 1051.44 1276.71 1048.02 1278.35 1044.39
  C 1279.04 1042.87 1280.38 1042.03 1282.39 1041.86
  C 1288.01 1041.38 1294.69 1040.32 1302.44 1038.67
  C 1307.02 1037.70 1314.17 1036.44 1317.48 1040.58
  C 1320.93 1044.88 1325.00 1048.21 1329.71 1050.58
  Z"
/>
</svg>
